<?xml version="1.0" encoding="UTF-8"?>
<svg xmlns="http://www.w3.org/2000/svg" viewBox="0 0 920 320" width="920" height="320" role="img" aria-labelledby="title desc">
  <title id="title">Research structure: kongruensk&#230;de (synopsis)</title>
  <desc id="desc">Problemformulering gennem fire vidensniveauer til empiri, triangulering og etik.</desc>
  <defs>
    <style type="text/css"><![CDATA[
      .box { fill: #f7f8fa; stroke: #2c3e50; stroke-width: 1.5; }
      .boxAccent { fill: #eef2f6; stroke: #2c3e50; stroke-width: 1.5; }
      .arrow { stroke: #2c3e50; stroke-width: 1.8; fill: none; marker-end: url(#arrowHead); }
      .t { font-family: Arial, Helvetica, sans-serif; fill: #1a1a1a; }
      .h { font-size: 13px; font-weight: bold; }
      .s { font-size: 11px; }
      .cap { font-size: 10px; fill: #444; }
    ]]></style>
    <marker id="arrowHead" markerWidth="8" markerHeight="8" refX="7" refY="3" orient="auto">
      <polygon points="0 0, 8 3, 0 6" fill="#2c3e50"/>
    </marker>
  </defs>

  <!-- Niveau 1: PF + fire vidensniveauer -->
  <rect class="boxAccent" x="20" y="28" width="160" height="72" rx="4"/>
  <text class="t h" x="100" y="52" text-anchor="middle">Problemformulering</text>
  <text class="t s" x="100" y="70" text-anchor="middle">Afgr&#230;nsning: modtaget opgave</text>
  <text class="t s" x="100" y="86" text-anchor="middle">-&gt; klientindstillet konsulent</text>

  <rect class="box" x="210" y="28" width="130" height="72" rx="4"/>
  <text class="t h" x="275" y="52" text-anchor="middle">Ontologi</text>
  <text class="t s" x="275" y="72" text-anchor="middle">Dobbelt</text>
  <text class="t s" x="275" y="86" text-anchor="middle">virkelighedsforst&#229;else</text>

  <rect class="box" x="370" y="28" width="130" height="72" rx="4"/>
  <text class="t h" x="435" y="52" text-anchor="middle">Epistemologi</text>
  <text class="t s" x="435" y="72" text-anchor="middle">Hermeneutik /</text>
  <text class="t s" x="435" y="86" text-anchor="middle">klassisk positivisme</text>

  <rect class="box" x="530" y="28" width="150" height="72" rx="4"/>
  <text class="t h" x="605" y="48" text-anchor="middle">Metodologi</text>
  <text class="t s" x="605" y="66" text-anchor="middle">Abduktion,</text>
  <text class="t s" x="605" y="80" text-anchor="middle">sekventielt design,</text>
  <text class="t s" x="605" y="94" text-anchor="middle">indlejret case</text>

  <rect class="box" x="710" y="28" width="190" height="72" rx="4"/>
  <text class="t h" x="805" y="48" text-anchor="middle">Metode / teknisk</text>
  <text class="t s" x="805" y="66" text-anchor="middle">Interview &#183; artefakt &#183;</text>
  <text class="t s" x="805" y="82" text-anchor="middle">platformdata (KPI)</text>

  <line class="arrow" x1="180" y1="64" x2="208" y2="64"/>
  <line class="arrow" x1="340" y1="64" x2="368" y2="64"/>
  <line class="arrow" x1="500" y1="64" x2="528" y2="64"/>
  <line class="arrow" x1="680" y1="64" x2="708" y2="64"/>

  <path class="arrow" d="M 605 100 L 605 132 L 220 132 L 220 170"/>

  <!-- Niveau 2: Empiri, Triangulering, Etik -->
  <rect class="boxAccent" x="120" y="170" width="200" height="76" rx="4"/>
  <text class="t h" x="220" y="196" text-anchor="middle">Empiri</text>
  <text class="t s" x="220" y="216" text-anchor="middle">Informanter, dokumenter,</text>
  <text class="t s" x="220" y="232" text-anchor="middle">systemudtr&#230;k (tv&#230;rsnit)</text>

  <rect class="box" x="360" y="170" width="240" height="76" rx="4"/>
  <text class="t h" x="480" y="194" text-anchor="middle">Triangulering</text>
  <text class="t s" x="480" y="214" text-anchor="middle">Formelle principper mod</text>
  <text class="t s" x="480" y="230" text-anchor="middle">faktisk beslutningsadf&#230;rd (Rossman &amp; Wilson)</text>

  <rect class="box" x="640" y="170" width="260" height="76" rx="4"/>
  <text class="t h" x="770" y="194" text-anchor="middle">Etik og kvalitet</text>
  <text class="t s" x="770" y="214" text-anchor="middle">Kuada-kriterier + KPI-kvalitet</text>
  <text class="t s" x="770" y="230" text-anchor="middle">Informantvalidering, dokumentation</text>

  <line class="arrow" x1="320" y1="208" x2="358" y2="208"/>
  <line class="arrow" x1="600" y1="208" x2="638" y2="208"/>

  <text class="t cap" x="460" y="278" text-anchor="middle">Egen figur. Kongruensk&#230;de efter Holm (2023); Kuada (2012); Saunders et al. (2023); Rossman &amp; Wilson (1985).</text>
</svg>
