<?xml version="1.0" encoding="us-ascii" standalone="no"?><svg xmlns="http://www.w3.org/2000/svg" xmlns:xlink="http://www.w3.org/1999/xlink" contentStyleType="text/css" height="944px" preserveAspectRatio="none" style="width:642px;height:944px;background:#FFFFFF;" version="1.1" viewBox="0 0 642 944" width="642px" zoomAndPan="magnify"><defs/><g><text fill="#000000" font-family="sans-serif" font-size="14" font-weight="bold" lengthAdjust="spacing" textLength="316" x="156.25" y="24.5332">SoluTalent &#226;&#8364;&#8221; Datamodel (centrale entiteter)</text><!--class users--><g id="elem_users"><rect codeLine="21" fill="#F1F1F1" height="93.9219" id="users" rx="2.5" ry="2.5" style="stroke:#181818;stroke-width:0.5;" width="127" x="469" y="253.6094"/><ellipse cx="484" cy="274.9609" fill="#ADD1B2" rx="11" ry="11" style="stroke:#181818;stroke-width:1.0;"/><path d="M482.8594,275.7578 L482.8594,278.2578 L487.1875,278.2578 L487.1875,277.3359 Q487.1875,276.7266 487.4219,276.4609 Q487.6719,276.1953 488.0469,276.1953 Q488.4219,276.1953 488.6563,276.4609 Q488.8906,276.7266 488.8906,277.3359 L488.8906,279.9609 L480.8906,279.9609 Q480.2656,279.9609 480,279.7266 Q479.75,279.4922 479.75,279.1016 Q479.75,278.7266 480.0156,278.4922 Q480.2813,278.2578 480.8906,278.2578 L481.1563,278.2578 L481.1563,271.6016 L480.8906,271.6016 Q480.2656,271.6016 480,271.3672 Q479.75,271.1328 479.75,270.7422 Q479.75,270.3672 480,270.1328 Q480.2656,269.8984 480.8906,269.8984 L488.5156,269.8984 L488.5156,272.4922 Q488.5156,273.1016 488.2813,273.3672 Q488.0625,273.6172 487.6719,273.6172 Q487.2969,273.6172 487.0625,273.3672 Q486.8281,273.1016 486.8281,272.4922 L486.8281,271.6016 L482.8594,271.6016 L482.8594,274.0547 L484.3438,274.0547 Q484.3438,273.3984 484.4688,273.2109 Q484.7344,272.8047 485.2031,272.8047 Q485.5781,272.8047 485.8125,273.0703 Q486.0469,273.3203 486.0469,273.9297 L486.0469,275.8984 Q486.0469,276.4453 485.9219,276.6328 Q485.6563,277.0234 485.2031,277.0234 Q484.7344,277.0234 484.4688,276.6172 Q484.3438,276.4297 484.3438,275.7578 L482.8594,275.7578 Z " fill="#000000"/><text fill="#000000" font-family="sans-serif" font-size="12" font-style="italic" lengthAdjust="spacing" textLength="99" x="496" y="271.0664">&#171;Supabase Auth&#187;</text><text fill="#000000" font-family="sans-serif" font-size="14" lengthAdjust="spacing" textLength="67" x="512" y="288.2363">auth.users</text><line style="stroke:#181818;stroke-width:0.5;" x1="470" x2="595" y1="296.3125" y2="296.3125"/><text fill="#1565C0" font-family="sans-serif" font-size="14" font-weight="bold" lengthAdjust="spacing" textLength="13" x="475" y="314.8457">id</text><text fill="#000000" font-family="sans-serif" font-size="14" lengthAdjust="spacing" textLength="35" x="492" y="314.8457">: uuid</text><text fill="#000000" font-family="sans-serif" font-size="14" lengthAdjust="spacing" textLength="67" x="475" y="332.4551">email : text</text><line style="stroke:#181818;stroke-width:0.5;" x1="470" x2="595" y1="339.5313" y2="339.5313"/></g><!--class profiles--><g id="elem_profiles"><rect codeLine="26" fill="#F1F1F1" height="118.4375" id="profiles" rx="2.5" ry="2.5" style="stroke:#181818;stroke-width:0.5;" width="130" x="505.5" y="54.6094"/><ellipse cx="543.9" cy="70.6094" fill="#ADD1B2" rx="11" ry="11" style="stroke:#181818;stroke-width:1.0;"/><path d="M542.7594,71.4063 L542.7594,73.9063 L547.0875,73.9063 L547.0875,72.9844 Q547.0875,72.375 547.3219,72.1094 Q547.5719,71.8438 547.9469,71.8438 Q548.3219,71.8438 548.5563,72.1094 Q548.7906,72.375 548.7906,72.9844 L548.7906,75.6094 L540.7906,75.6094 Q540.1656,75.6094 539.9,75.375 Q539.65,75.1406 539.65,74.75 Q539.65,74.375 539.9156,74.1406 Q540.1813,73.9063 540.7906,73.9063 L541.0563,73.9063 L541.0563,67.25 L540.7906,67.25 Q540.1656,67.25 539.9,67.0156 Q539.65,66.7813 539.65,66.3906 Q539.65,66.0156 539.9,65.7813 Q540.1656,65.5469 540.7906,65.5469 L548.4156,65.5469 L548.4156,68.1406 Q548.4156,68.75 548.1813,69.0156 Q547.9625,69.2656 547.5719,69.2656 Q547.1969,69.2656 546.9625,69.0156 Q546.7281,68.75 546.7281,68.1406 L546.7281,67.25 L542.7594,67.25 L542.7594,69.7031 L544.2438,69.7031 Q544.2438,69.0469 544.3688,68.8594 Q544.6344,68.4531 545.1031,68.4531 Q545.4781,68.4531 545.7125,68.7188 Q545.9469,68.9688 545.9469,69.5781 L545.9469,71.5469 Q545.9469,72.0938 545.8219,72.2813 Q545.5563,72.6719 545.1031,72.6719 Q544.6344,72.6719 544.3688,72.2656 Q544.2438,72.0781 544.2438,71.4063 L542.7594,71.4063 Z " fill="#000000"/><text fill="#000000" font-family="sans-serif" font-size="14" lengthAdjust="spacing" textLength="46" x="563.1" y="76.3379">profiles</text><line style="stroke:#181818;stroke-width:0.5;" x1="506.5" x2="634.5" y1="86.6094" y2="86.6094"/><text fill="#1565C0" font-family="sans-serif" font-size="14" font-weight="bold" lengthAdjust="spacing" textLength="13" x="511.5" y="105.1426">id</text><text fill="#000000" font-family="sans-serif" font-size="14" lengthAdjust="spacing" textLength="35" x="528.5" y="105.1426">: uuid</text><text fill="#E65100" font-family="sans-serif" font-size="14" lengthAdjust="spacing" textLength="47" x="511.5" y="122.752">user_id</text><text fill="#000000" font-family="sans-serif" font-size="14" lengthAdjust="spacing" textLength="35" x="562.5" y="122.752">: uuid</text><text fill="#000000" font-family="sans-serif" font-size="14" lengthAdjust="spacing" textLength="92" x="511.5" y="140.3613">role : app_role</text><text fill="#000000" font-family="sans-serif" font-size="14" lengthAdjust="spacing" textLength="118" x="511.5" y="157.9707">is_active : boolean</text><line style="stroke:#181818;stroke-width:0.5;" x1="506.5" x2="634.5" y1="165.0469" y2="165.0469"/></g><!--class freelancers--><g id="elem_freelancers"><rect codeLine="35" fill="#F1F1F1" height="118.4375" id="freelancers" rx="2.5" ry="2.5" style="stroke:#181818;stroke-width:0.5;" width="103" x="195" y="241.6094"/><ellipse cx="210" cy="257.6094" fill="#ADD1B2" rx="11" ry="11" style="stroke:#181818;stroke-width:1.0;"/><path d="M208.8594,258.4063 L208.8594,260.9063 L213.1875,260.9063 L213.1875,259.9844 Q213.1875,259.375 213.4219,259.1094 Q213.6719,258.8438 214.0469,258.8438 Q214.4219,258.8438 214.6563,259.1094 Q214.8906,259.375 214.8906,259.9844 L214.8906,262.6094 L206.8906,262.6094 Q206.2656,262.6094 206,262.375 Q205.75,262.1406 205.75,261.75 Q205.75,261.375 206.0156,261.1406 Q206.2813,260.9063 206.8906,260.9063 L207.1563,260.9063 L207.1563,254.25 L206.8906,254.25 Q206.2656,254.25 206,254.0156 Q205.75,253.7813 205.75,253.3906 Q205.75,253.0156 206,252.7813 Q206.2656,252.5469 206.8906,252.5469 L214.5156,252.5469 L214.5156,255.1406 Q214.5156,255.75 214.2813,256.0156 Q214.0625,256.2656 213.6719,256.2656 Q213.2969,256.2656 213.0625,256.0156 Q212.8281,255.75 212.8281,255.1406 L212.8281,254.25 L208.8594,254.25 L208.8594,256.7031 L210.3438,256.7031 Q210.3438,256.0469 210.4688,255.8594 Q210.7344,255.4531 211.2031,255.4531 Q211.5781,255.4531 211.8125,255.7188 Q212.0469,255.9688 212.0469,256.5781 L212.0469,258.5469 Q212.0469,259.0938 211.9219,259.2813 Q211.6563,259.6719 211.2031,259.6719 Q210.7344,259.6719 210.4688,259.2656 Q210.3438,259.0781 210.3438,258.4063 L208.8594,258.4063 Z " fill="#000000"/><text fill="#000000" font-family="sans-serif" font-size="14" lengthAdjust="spacing" textLength="71" x="224" y="263.3379">freelancers</text><line style="stroke:#181818;stroke-width:0.5;" x1="196" x2="297" y1="273.6094" y2="273.6094"/><text fill="#1565C0" font-family="sans-serif" font-size="14" font-weight="bold" lengthAdjust="spacing" textLength="13" x="201" y="292.1426">id</text><text fill="#000000" font-family="sans-serif" font-size="14" lengthAdjust="spacing" textLength="35" x="218" y="292.1426">: uuid</text><text fill="#000000" font-family="sans-serif" font-size="14" lengthAdjust="spacing" textLength="69" x="201" y="309.752">name : text</text><text fill="#000000" font-family="sans-serif" font-size="14" lengthAdjust="spacing" textLength="89" x="201" y="327.3613">category : text</text><text fill="#000000" font-family="sans-serif" font-size="14" lengthAdjust="spacing" textLength="87" x="201" y="344.9707">seniority : text</text><line style="stroke:#181818;stroke-width:0.5;" x1="196" x2="297" y1="352.0469" y2="352.0469"/></g><!--class skills--><g id="elem_skills"><rect codeLine="42" fill="#F1F1F1" height="136.0469" id="skills" rx="2.5" ry="2.5" style="stroke:#181818;stroke-width:0.5;" width="171" x="7" y="419.6094"/><ellipse cx="38.65" cy="435.6094" fill="#ADD1B2" rx="11" ry="11" style="stroke:#181818;stroke-width:1.0;"/><path d="M37.5094,436.4063 L37.5094,438.9063 L41.8375,438.9063 L41.8375,437.9844 Q41.8375,437.375 42.0719,437.1094 Q42.3219,436.8438 42.6969,436.8438 Q43.0719,436.8438 43.3063,437.1094 Q43.5406,437.375 43.5406,437.9844 L43.5406,440.6094 L35.5406,440.6094 Q34.9156,440.6094 34.65,440.375 Q34.4,440.1406 34.4,439.75 Q34.4,439.375 34.6656,439.1406 Q34.9313,438.9063 35.5406,438.9063 L35.8063,438.9063 L35.8063,432.25 L35.5406,432.25 Q34.9156,432.25 34.65,432.0156 Q34.4,431.7813 34.4,431.3906 Q34.4,431.0156 34.65,430.7813 Q34.9156,430.5469 35.5406,430.5469 L43.1656,430.5469 L43.1656,433.1406 Q43.1656,433.75 42.9313,434.0156 Q42.7125,434.2656 42.3219,434.2656 Q41.9469,434.2656 41.7125,434.0156 Q41.4781,433.75 41.4781,433.1406 L41.4781,432.25 L37.5094,432.25 L37.5094,434.7031 L38.9938,434.7031 Q38.9938,434.0469 39.1188,433.8594 Q39.3844,433.4531 39.8531,433.4531 Q40.2281,433.4531 40.4625,433.7188 Q40.6969,433.9688 40.6969,434.5781 L40.6969,436.5469 Q40.6969,437.0938 40.5719,437.2813 Q40.3063,437.6719 39.8531,437.6719 Q39.3844,437.6719 39.1188,437.2656 Q38.9938,437.0781 38.9938,436.4063 L37.5094,436.4063 Z " fill="#000000"/><text fill="#000000" font-family="sans-serif" font-size="14" lengthAdjust="spacing" textLength="102" x="56.35" y="441.3379">freelancer_skills</text><line style="stroke:#181818;stroke-width:0.5;" x1="8" x2="177" y1="451.6094" y2="451.6094"/><text fill="#1565C0" font-family="sans-serif" font-size="14" font-weight="bold" lengthAdjust="spacing" textLength="13" x="13" y="470.1426">id</text><text fill="#000000" font-family="sans-serif" font-size="14" lengthAdjust="spacing" textLength="35" x="30" y="470.1426">: uuid</text><text fill="#E65100" font-family="sans-serif" font-size="14" lengthAdjust="spacing" textLength="83" x="13" y="487.752">freelancer_id</text><text fill="#000000" font-family="sans-serif" font-size="14" lengthAdjust="spacing" textLength="35" x="100" y="487.752">: uuid</text><text fill="#000000" font-family="sans-serif" font-size="14" lengthAdjust="spacing" textLength="57" x="13" y="505.3613">skill : text</text><text fill="#000000" font-family="sans-serif" font-size="14" lengthAdjust="spacing" textLength="102" x="13" y="522.9707">proficiency : text</text><text fill="#000000" font-family="sans-serif" font-size="14" lengthAdjust="spacing" textLength="159" x="13" y="540.5801">years_of_experience : int</text><line style="stroke:#181818;stroke-width:0.5;" x1="8" x2="177" y1="547.6563" y2="547.6563"/></g><!--class jobs--><g id="elem_jobs"><rect codeLine="52" fill="#F1F1F1" height="118.4375" id="jobs" rx="2.5" ry="2.5" style="stroke:#181818;stroke-width:0.5;" width="101" x="333" y="241.6094"/><ellipse cx="367.35" cy="257.6094" fill="#ADD1B2" rx="11" ry="11" style="stroke:#181818;stroke-width:1.0;"/><path d="M366.2094,258.4063 L366.2094,260.9063 L370.5375,260.9063 L370.5375,259.9844 Q370.5375,259.375 370.7719,259.1094 Q371.0219,258.8438 371.3969,258.8438 Q371.7719,258.8438 372.0063,259.1094 Q372.2406,259.375 372.2406,259.9844 L372.2406,262.6094 L364.2406,262.6094 Q363.6156,262.6094 363.35,262.375 Q363.1,262.1406 363.1,261.75 Q363.1,261.375 363.3656,261.1406 Q363.6313,260.9063 364.2406,260.9063 L364.5063,260.9063 L364.5063,254.25 L364.2406,254.25 Q363.6156,254.25 363.35,254.0156 Q363.1,253.7813 363.1,253.3906 Q363.1,253.0156 363.35,252.7813 Q363.6156,252.5469 364.2406,252.5469 L371.8656,252.5469 L371.8656,255.1406 Q371.8656,255.75 371.6313,256.0156 Q371.4125,256.2656 371.0219,256.2656 Q370.6469,256.2656 370.4125,256.0156 Q370.1781,255.75 370.1781,255.1406 L370.1781,254.25 L366.2094,254.25 L366.2094,256.7031 L367.6938,256.7031 Q367.6938,256.0469 367.8188,255.8594 Q368.0844,255.4531 368.5531,255.4531 Q368.9281,255.4531 369.1625,255.7188 Q369.3969,255.9688 369.3969,256.5781 L369.3969,258.5469 Q369.3969,259.0938 369.2719,259.2813 Q369.0063,259.6719 368.5531,259.6719 Q368.0844,259.6719 367.8188,259.2656 Q367.6938,259.0781 367.6938,258.4063 L366.2094,258.4063 Z " fill="#000000"/><text fill="#000000" font-family="sans-serif" font-size="14" lengthAdjust="spacing" textLength="26" x="385.65" y="263.3379">jobs</text><line style="stroke:#181818;stroke-width:0.5;" x1="334" x2="433" y1="273.6094" y2="273.6094"/><text fill="#1565C0" font-family="sans-serif" font-size="14" font-weight="bold" lengthAdjust="spacing" textLength="13" x="339" y="292.1426">id</text><text fill="#000000" font-family="sans-serif" font-size="14" lengthAdjust="spacing" textLength="35" x="356" y="292.1426">: uuid</text><text fill="#000000" font-family="sans-serif" font-size="14" lengthAdjust="spacing" textLength="56" x="339" y="309.752">title : text</text><text fill="#000000" font-family="sans-serif" font-size="14" lengthAdjust="spacing" textLength="89" x="339" y="327.3613">category : text</text><text fill="#000000" font-family="sans-serif" font-size="14" lengthAdjust="spacing" textLength="72" x="339" y="344.9707">status : text</text><line style="stroke:#181818;stroke-width:0.5;" x1="334" x2="433" y1="352.0469" y2="352.0469"/></g><!--class match_req--><g id="elem_match_req"><rect codeLine="61" fill="#F1F1F1" height="136.0469" id="match_req" rx="2.5" ry="2.5" style="stroke:#181818;stroke-width:0.5;" width="134" x="415.5" y="419.6094"/><ellipse cx="430.95" cy="435.6094" fill="#ADD1B2" rx="11" ry="11" style="stroke:#181818;stroke-width:1.0;"/><path d="M429.8094,436.4063 L429.8094,438.9063 L434.1375,438.9063 L434.1375,437.9844 Q434.1375,437.375 434.3719,437.1094 Q434.6219,436.8438 434.9969,436.8438 Q435.3719,436.8438 435.6063,437.1094 Q435.8406,437.375 435.8406,437.9844 L435.8406,440.6094 L427.8406,440.6094 Q427.2156,440.6094 426.95,440.375 Q426.7,440.1406 426.7,439.75 Q426.7,439.375 426.9656,439.1406 Q427.2313,438.9063 427.8406,438.9063 L428.1063,438.9063 L428.1063,432.25 L427.8406,432.25 Q427.2156,432.25 426.95,432.0156 Q426.7,431.7813 426.7,431.3906 Q426.7,431.0156 426.95,430.7813 Q427.2156,430.5469 427.8406,430.5469 L435.4656,430.5469 L435.4656,433.1406 Q435.4656,433.75 435.2313,434.0156 Q435.0125,434.2656 434.6219,434.2656 Q434.2469,434.2656 434.0125,434.0156 Q433.7781,433.75 433.7781,433.1406 L433.7781,432.25 L429.8094,432.25 L429.8094,434.7031 L431.2938,434.7031 Q431.2938,434.0469 431.4188,433.8594 Q431.6844,433.4531 432.1531,433.4531 Q432.5281,433.4531 432.7625,433.7188 Q432.9969,433.9688 432.9969,434.5781 L432.9969,436.5469 Q432.9969,437.0938 432.8719,437.2813 Q432.6063,437.6719 432.1531,437.6719 Q431.6844,437.6719 431.4188,437.2656 Q431.2938,437.0781 431.2938,436.4063 L429.8094,436.4063 Z " fill="#000000"/><text fill="#000000" font-family="sans-serif" font-size="14" lengthAdjust="spacing" textLength="101" x="445.05" y="441.3379">match_requests</text><line style="stroke:#181818;stroke-width:0.5;" x1="416.5" x2="548.5" y1="451.6094" y2="451.6094"/><text fill="#1565C0" font-family="sans-serif" font-size="14" font-weight="bold" lengthAdjust="spacing" textLength="13" x="421.5" y="470.1426">id</text><text fill="#000000" font-family="sans-serif" font-size="14" lengthAdjust="spacing" textLength="35" x="438.5" y="470.1426">: uuid</text><text fill="#E65100" font-family="sans-serif" font-size="14" lengthAdjust="spacing" textLength="83" x="421.5" y="487.752">freelancer_id</text><text fill="#000000" font-family="sans-serif" font-size="14" lengthAdjust="spacing" textLength="35" x="508.5" y="487.752">: uuid</text><text fill="#E65100" font-family="sans-serif" font-size="14" lengthAdjust="spacing" textLength="38" x="421.5" y="505.3613">job_id</text><text fill="#000000" font-family="sans-serif" font-size="14" lengthAdjust="spacing" textLength="35" x="463.5" y="505.3613">: uuid</text><text fill="#E65100" font-family="sans-serif" font-size="14" lengthAdjust="spacing" textLength="79" x="421.5" y="522.9707">reviewed_by</text><text fill="#000000" font-family="sans-serif" font-size="14" lengthAdjust="spacing" textLength="35" x="504.5" y="522.9707">: uuid</text><text fill="#000000" font-family="sans-serif" font-size="14" lengthAdjust="spacing" textLength="72" x="421.5" y="540.5801">status : text</text><line style="stroke:#181818;stroke-width:0.5;" x1="416.5" x2="548.5" y1="547.6563" y2="547.6563"/></g><!--class match_res--><g id="elem_match_res"><rect codeLine="69" fill="#F1F1F1" height="171.2656" id="match_res" rx="2.5" ry="2.5" style="stroke:#181818;stroke-width:0.5;" width="173" x="396" y="615.6094"/><ellipse cx="434.85" cy="631.6094" fill="#ADD1B2" rx="11" ry="11" style="stroke:#181818;stroke-width:1.0;"/><path d="M433.7094,632.4063 L433.7094,634.9063 L438.0375,634.9063 L438.0375,633.9844 Q438.0375,633.375 438.2719,633.1094 Q438.5219,632.8438 438.8969,632.8438 Q439.2719,632.8438 439.5063,633.1094 Q439.7406,633.375 439.7406,633.9844 L439.7406,636.6094 L431.7406,636.6094 Q431.1156,636.6094 430.85,636.375 Q430.6,636.1406 430.6,635.75 Q430.6,635.375 430.8656,635.1406 Q431.1313,634.9063 431.7406,634.9063 L432.0063,634.9063 L432.0063,628.25 L431.7406,628.25 Q431.1156,628.25 430.85,628.0156 Q430.6,627.7813 430.6,627.3906 Q430.6,627.0156 430.85,626.7813 Q431.1156,626.5469 431.7406,626.5469 L439.3656,626.5469 L439.3656,629.1406 Q439.3656,629.75 439.1313,630.0156 Q438.9125,630.2656 438.5219,630.2656 Q438.1469,630.2656 437.9125,630.0156 Q437.6781,629.75 437.6781,629.1406 L437.6781,628.25 L433.7094,628.25 L433.7094,630.7031 L435.1938,630.7031 Q435.1938,630.0469 435.3188,629.8594 Q435.5844,629.4531 436.0531,629.4531 Q436.4281,629.4531 436.6625,629.7188 Q436.8969,629.9688 436.8969,630.5781 L436.8969,632.5469 Q436.8969,633.0938 436.7719,633.2813 Q436.5063,633.6719 436.0531,633.6719 Q435.5844,633.6719 435.3188,633.2656 Q435.1938,633.0781 435.1938,632.4063 L433.7094,632.4063 Z " fill="#000000"/><text fill="#000000" font-family="sans-serif" font-size="14" lengthAdjust="spacing" textLength="88" x="454.15" y="637.3379">match_results</text><line style="stroke:#181818;stroke-width:0.5;" x1="397" x2="568" y1="647.6094" y2="647.6094"/><text fill="#1565C0" font-family="sans-serif" font-size="14" font-weight="bold" lengthAdjust="spacing" textLength="13" x="402" y="666.1426">id</text><text fill="#000000" font-family="sans-serif" font-size="14" lengthAdjust="spacing" textLength="35" x="419" y="666.1426">: uuid</text><text fill="#E65100" font-family="sans-serif" font-size="14" lengthAdjust="spacing" textLength="113" x="402" y="683.752">match_request_id</text><text fill="#000000" font-family="sans-serif" font-size="14" lengthAdjust="spacing" textLength="35" x="519" y="683.752">: uuid</text><text fill="#000000" font-family="sans-serif" font-size="14" lengthAdjust="spacing" textLength="112" x="402" y="701.3613">overall_score : int</text><text fill="#000000" font-family="sans-serif" font-size="14" lengthAdjust="spacing" textLength="161" x="402" y="718.9707">semantic_score : numeric</text><text fill="#000000" font-family="sans-serif" font-size="14" lengthAdjust="spacing" textLength="143" x="402" y="736.5801">match_reasons : jsonb</text><text fill="#000000" font-family="sans-serif" font-size="14" lengthAdjust="spacing" textLength="108" x="402" y="754.1895">skill_gaps : jsonb</text><text fill="#000000" font-family="sans-serif" font-size="14" lengthAdjust="spacing" textLength="158" x="402" y="771.7988">embedding_version : text</text><line style="stroke:#181818;stroke-width:0.5;" x1="397" x2="568" y1="778.875" y2="778.875"/></g><!--class bids--><g id="elem_bids"><rect codeLine="81" fill="#F1F1F1" height="136.0469" id="bids" rx="2.5" ry="2.5" style="stroke:#181818;stroke-width:0.5;" width="167" x="213" y="419.6094"/><ellipse cx="279.25" cy="435.6094" fill="#ADD1B2" rx="11" ry="11" style="stroke:#181818;stroke-width:1.0;"/><path d="M278.1094,436.4063 L278.1094,438.9063 L282.4375,438.9063 L282.4375,437.9844 Q282.4375,437.375 282.6719,437.1094 Q282.9219,436.8438 283.2969,436.8438 Q283.6719,436.8438 283.9063,437.1094 Q284.1406,437.375 284.1406,437.9844 L284.1406,440.6094 L276.1406,440.6094 Q275.5156,440.6094 275.25,440.375 Q275,440.1406 275,439.75 Q275,439.375 275.2656,439.1406 Q275.5313,438.9063 276.1406,438.9063 L276.4063,438.9063 L276.4063,432.25 L276.1406,432.25 Q275.5156,432.25 275.25,432.0156 Q275,431.7813 275,431.3906 Q275,431.0156 275.25,430.7813 Q275.5156,430.5469 276.1406,430.5469 L283.7656,430.5469 L283.7656,433.1406 Q283.7656,433.75 283.5313,434.0156 Q283.3125,434.2656 282.9219,434.2656 Q282.5469,434.2656 282.3125,434.0156 Q282.0781,433.75 282.0781,433.1406 L282.0781,432.25 L278.1094,432.25 L278.1094,434.7031 L279.5938,434.7031 Q279.5938,434.0469 279.7188,433.8594 Q279.9844,433.4531 280.4531,433.4531 Q280.8281,433.4531 281.0625,433.7188 Q281.2969,433.9688 281.2969,434.5781 L281.2969,436.5469 Q281.2969,437.0938 281.1719,437.2813 Q280.9063,437.6719 280.4531,437.6719 Q279.9844,437.6719 279.7188,437.2656 Q279.5938,437.0781 279.5938,436.4063 L278.1094,436.4063 Z " fill="#000000"/><text fill="#000000" font-family="sans-serif" font-size="14" lengthAdjust="spacing" textLength="26" x="299.75" y="441.3379">bids</text><line style="stroke:#181818;stroke-width:0.5;" x1="214" x2="379" y1="451.6094" y2="451.6094"/><text fill="#1565C0" font-family="sans-serif" font-size="14" font-weight="bold" lengthAdjust="spacing" textLength="13" x="219" y="470.1426">id</text><text fill="#000000" font-family="sans-serif" font-size="14" lengthAdjust="spacing" textLength="35" x="236" y="470.1426">: uuid</text><text fill="#E65100" font-family="sans-serif" font-size="14" lengthAdjust="spacing" textLength="38" x="219" y="487.752">job_id</text><text fill="#000000" font-family="sans-serif" font-size="14" lengthAdjust="spacing" textLength="35" x="261" y="487.752">: uuid</text><text fill="#E65100" font-family="sans-serif" font-size="14" lengthAdjust="spacing" textLength="83" x="219" y="505.3613">freelancer_id</text><text fill="#000000" font-family="sans-serif" font-size="14" lengthAdjust="spacing" textLength="35" x="306" y="505.3613">: uuid</text><text fill="#000000" font-family="sans-serif" font-size="14" lengthAdjust="spacing" textLength="115" x="219" y="522.9707">status : bid_status</text><text fill="#000000" font-family="sans-serif" font-size="14" lengthAdjust="spacing" textLength="155" x="219" y="540.5801">proposed_rate : numeric</text><line style="stroke:#181818;stroke-width:0.5;" x1="214" x2="379" y1="547.6563" y2="547.6563"/></g><!--class contracts--><g id="elem_contracts"><rect codeLine="89" fill="#F1F1F1" height="118.4375" id="contracts" rx="2.5" ry="2.5" style="stroke:#181818;stroke-width:0.5;" width="159" x="311" y="54.6094"/><ellipse cx="357.25" cy="70.6094" fill="#ADD1B2" rx="11" ry="11" style="stroke:#181818;stroke-width:1.0;"/><path d="M356.1094,71.4063 L356.1094,73.9063 L360.4375,73.9063 L360.4375,72.9844 Q360.4375,72.375 360.6719,72.1094 Q360.9219,71.8438 361.2969,71.8438 Q361.6719,71.8438 361.9063,72.1094 Q362.1406,72.375 362.1406,72.9844 L362.1406,75.6094 L354.1406,75.6094 Q353.5156,75.6094 353.25,75.375 Q353,75.1406 353,74.75 Q353,74.375 353.2656,74.1406 Q353.5313,73.9063 354.1406,73.9063 L354.4063,73.9063 L354.4063,67.25 L354.1406,67.25 Q353.5156,67.25 353.25,67.0156 Q353,66.7813 353,66.3906 Q353,66.0156 353.25,65.7813 Q353.5156,65.5469 354.1406,65.5469 L361.7656,65.5469 L361.7656,68.1406 Q361.7656,68.75 361.5313,69.0156 Q361.3125,69.2656 360.9219,69.2656 Q360.5469,69.2656 360.3125,69.0156 Q360.0781,68.75 360.0781,68.1406 L360.0781,67.25 L356.1094,67.25 L356.1094,69.7031 L357.5938,69.7031 Q357.5938,69.0469 357.7188,68.8594 Q357.9844,68.4531 358.4531,68.4531 Q358.8281,68.4531 359.0625,68.7188 Q359.2969,68.9688 359.2969,69.5781 L359.2969,71.5469 Q359.2969,72.0938 359.1719,72.2813 Q358.9063,72.6719 358.4531,72.6719 Q357.9844,72.6719 357.7188,72.2656 Q357.5938,72.0781 357.5938,71.4063 L356.1094,71.4063 Z " fill="#000000"/><text fill="#000000" font-family="sans-serif" font-size="14" lengthAdjust="spacing" textLength="58" x="377.75" y="76.3379">contracts</text><line style="stroke:#181818;stroke-width:0.5;" x1="312" x2="469" y1="86.6094" y2="86.6094"/><text fill="#1565C0" font-family="sans-serif" font-size="14" font-weight="bold" lengthAdjust="spacing" textLength="13" x="317" y="105.1426">id</text><text fill="#000000" font-family="sans-serif" font-size="14" lengthAdjust="spacing" textLength="35" x="334" y="105.1426">: uuid</text><text fill="#E65100" font-family="sans-serif" font-size="14" lengthAdjust="spacing" textLength="83" x="317" y="122.752">freelancer_id</text><text fill="#000000" font-family="sans-serif" font-size="14" lengthAdjust="spacing" textLength="35" x="404" y="122.752">: uuid</text><text fill="#E65100" font-family="sans-serif" font-size="14" lengthAdjust="spacing" textLength="52" x="317" y="140.3613">client_id</text><text fill="#000000" font-family="sans-serif" font-size="14" lengthAdjust="spacing" textLength="35" x="373" y="140.3613">: uuid</text><text fill="#000000" font-family="sans-serif" font-size="14" lengthAdjust="spacing" textLength="147" x="317" y="157.9707">status : contract_status</text><line style="stroke:#181818;stroke-width:0.5;" x1="312" x2="469" y1="165.0469" y2="165.0469"/></g><!--class time_entries--><g id="elem_time_entries"><rect codeLine="98" fill="#F1F1F1" height="136.0469" id="time_entries" rx="2.5" ry="2.5" style="stroke:#181818;stroke-width:0.5;" width="134" x="141.5" y="45.6094"/><ellipse cx="167.75" cy="61.6094" fill="#ADD1B2" rx="11" ry="11" style="stroke:#181818;stroke-width:1.0;"/><path d="M166.6094,62.4063 L166.6094,64.9063 L170.9375,64.9063 L170.9375,63.9844 Q170.9375,63.375 171.1719,63.1094 Q171.4219,62.8438 171.7969,62.8438 Q172.1719,62.8438 172.4063,63.1094 Q172.6406,63.375 172.6406,63.9844 L172.6406,66.6094 L164.6406,66.6094 Q164.0156,66.6094 163.75,66.375 Q163.5,66.1406 163.5,65.75 Q163.5,65.375 163.7656,65.1406 Q164.0313,64.9063 164.6406,64.9063 L164.9063,64.9063 L164.9063,58.25 L164.6406,58.25 Q164.0156,58.25 163.75,58.0156 Q163.5,57.7813 163.5,57.3906 Q163.5,57.0156 163.75,56.7813 Q164.0156,56.5469 164.6406,56.5469 L172.2656,56.5469 L172.2656,59.1406 Q172.2656,59.75 172.0313,60.0156 Q171.8125,60.2656 171.4219,60.2656 Q171.0469,60.2656 170.8125,60.0156 Q170.5781,59.75 170.5781,59.1406 L170.5781,58.25 L166.6094,58.25 L166.6094,60.7031 L168.0938,60.7031 Q168.0938,60.0469 168.2188,59.8594 Q168.4844,59.4531 168.9531,59.4531 Q169.3281,59.4531 169.5625,59.7188 Q169.7969,59.9688 169.7969,60.5781 L169.7969,62.5469 Q169.7969,63.0938 169.6719,63.2813 Q169.4063,63.6719 168.9531,63.6719 Q168.4844,63.6719 168.2188,63.2656 Q168.0938,63.0781 168.0938,62.4063 L166.6094,62.4063 Z " fill="#000000"/><text fill="#000000" font-family="sans-serif" font-size="14" lengthAdjust="spacing" textLength="77" x="184.25" y="67.3379">time_entries</text><line style="stroke:#181818;stroke-width:0.5;" x1="142.5" x2="274.5" y1="77.6094" y2="77.6094"/><text fill="#1565C0" font-family="sans-serif" font-size="14" font-weight="bold" lengthAdjust="spacing" textLength="13" x="147.5" y="96.1426">id</text><text fill="#000000" font-family="sans-serif" font-size="14" lengthAdjust="spacing" textLength="35" x="164.5" y="96.1426">: uuid</text><text fill="#E65100" font-family="sans-serif" font-size="14" lengthAdjust="spacing" textLength="83" x="147.5" y="113.752">freelancer_id</text><text fill="#000000" font-family="sans-serif" font-size="14" lengthAdjust="spacing" textLength="35" x="234.5" y="113.752">: uuid</text><text fill="#E65100" font-family="sans-serif" font-size="14" lengthAdjust="spacing" textLength="62" x="147.5" y="131.3613">project_id</text><text fill="#000000" font-family="sans-serif" font-size="14" lengthAdjust="spacing" textLength="35" x="213.5" y="131.3613">: uuid</text><text fill="#000000" font-family="sans-serif" font-size="14" lengthAdjust="spacing" textLength="98" x="147.5" y="148.9707">hours : numeric</text><text fill="#000000" font-family="sans-serif" font-size="14" lengthAdjust="spacing" textLength="72" x="147.5" y="166.5801">status : text</text><line style="stroke:#181818;stroke-width:0.5;" x1="142.5" x2="274.5" y1="173.6563" y2="173.6563"/></g><!--link profiles to users--><g id="link_profiles_users"><path codeLine="108" d="M550.75,190.7794 C550.75,216.7794 550.75,220.8894 550.75,245.3594 " fill="none" id="profiles-users" style="stroke:#181818;stroke-width:1.0;"/><line style="stroke:#181818;stroke-width:1.0;" x1="550.75" x2="544.75" y1="180.7794" y2="172.7794"/><line style="stroke:#181818;stroke-width:1.0;" x1="550.75" x2="556.75" y1="180.7794" y2="172.7794"/><line style="stroke:#181818;stroke-width:1.0;" x1="550.75" x2="550.75" y1="180.7794" y2="172.7794"/><ellipse cx="550.75" cy="186.7794" fill="none" rx="4" ry="4" style="stroke:#181818;stroke-width:1.0;"/><line style="stroke:#181818;stroke-width:1.0;" x1="554.75" x2="546.75" y1="249.3594" y2="249.3594"/><line style="stroke:#181818;stroke-width:1.0;" x1="554.75" x2="546.75" y1="246.3594" y2="246.3594"/><line style="stroke:#181818;stroke-width:1.0;" x1="550.75" x2="550.75" y1="245.3594" y2="253.3594"/><text fill="#000000" font-family="sans-serif" font-size="13" lengthAdjust="spacing" textLength="42" x="507.75" y="209.5645">user_id</text></g><!--link freelancers to skills--><g id="link_freelancers_skills"><path codeLine="110" d="M204,367.7794 C204,422.5594 204,487.6094 204,487.6094 C204,487.6094 211.11,487.6094 196.14,487.6094 " fill="none" id="freelancers-skills" style="stroke:#181818;stroke-width:1.0;"/><line style="stroke:#181818;stroke-width:1.0;" x1="200" x2="208" y1="363.7794" y2="363.7794"/><line style="stroke:#181818;stroke-width:1.0;" x1="200" x2="208" y1="366.7794" y2="366.7794"/><line style="stroke:#181818;stroke-width:1.0;" x1="204" x2="204" y1="367.7794" y2="359.7794"/><line style="stroke:#181818;stroke-width:1.0;" x1="186.14" x2="178.14" y1="487.6094" y2="493.6094"/><line style="stroke:#181818;stroke-width:1.0;" x1="186.14" x2="178.14" y1="487.6094" y2="481.6094"/><line style="stroke:#181818;stroke-width:1.0;" x1="186.14" x2="178.14" y1="487.6094" y2="487.6094"/><ellipse cx="192.14" cy="487.6094" fill="none" rx="4" ry="4" style="stroke:#181818;stroke-width:1.0;"/><text fill="#000000" font-family="sans-serif" font-size="13" lengthAdjust="spacing" textLength="73" x="186.25" y="451.1145">freelancer_id</text></g><!--link jobs to match_req--><g id="link_jobs_match_req"><path codeLine="112" d="M427.83,367.7794 C427.83,386.7194 427.83,381.8394 427.83,401.3694 " fill="none" id="jobs-match_req" style="stroke:#181818;stroke-width:1.0;"/><line style="stroke:#181818;stroke-width:1.0;" x1="423.83" x2="431.83" y1="363.7794" y2="363.7794"/><line style="stroke:#181818;stroke-width:1.0;" x1="423.83" x2="431.83" y1="366.7794" y2="366.7794"/><line style="stroke:#181818;stroke-width:1.0;" x1="427.83" x2="427.83" y1="367.7794" y2="359.7794"/><line style="stroke:#181818;stroke-width:1.0;" x1="427.83" x2="433.83" y1="411.3694" y2="419.3694"/><line style="stroke:#181818;stroke-width:1.0;" x1="427.83" x2="421.83" y1="411.3694" y2="419.3694"/><line style="stroke:#181818;stroke-width:1.0;" x1="427.83" x2="427.83" y1="411.3694" y2="419.3694"/><ellipse cx="427.83" cy="405.3694" fill="none" rx="4" ry="4" style="stroke:#181818;stroke-width:1.0;"/><text fill="#000000" font-family="sans-serif" font-size="13" lengthAdjust="spacing" textLength="34" x="392.83" y="386.0645">job_id</text></g><!--link freelancers to match_req--><g id="link_freelancers_match_req"><path codeLine="113" d="M269.67,367.9694 C269.67,384.2994 269.67,389.6094 269.67,389.6094 C269.67,389.6094 421.67,389.6094 421.67,389.6094 C421.67,389.6094 421.67,384.8194 421.67,401.5494 " fill="none" id="freelancers-match_req" style="stroke:#181818;stroke-width:1.0;"/><line style="stroke:#181818;stroke-width:1.0;" x1="265.67" x2="273.67" y1="363.9694" y2="363.9694"/><line style="stroke:#181818;stroke-width:1.0;" x1="265.67" x2="273.67" y1="366.9694" y2="366.9694"/><line style="stroke:#181818;stroke-width:1.0;" x1="269.67" x2="269.67" y1="367.9694" y2="359.9694"/><line style="stroke:#181818;stroke-width:1.0;" x1="421.67" x2="427.67" y1="411.5494" y2="419.5494"/><line style="stroke:#181818;stroke-width:1.0;" x1="421.67" x2="415.67" y1="411.5494" y2="419.5494"/><line style="stroke:#181818;stroke-width:1.0;" x1="421.67" x2="421.67" y1="411.5494" y2="419.5494"/><ellipse cx="421.67" cy="405.5494" fill="none" rx="4" ry="4" style="stroke:#181818;stroke-width:1.0;"/><text fill="#000000" font-family="sans-serif" font-size="13" lengthAdjust="spacing" textLength="73" x="271.82" y="386.1045">freelancer_id</text></g><!--link users to match_req--><g id="link_users_match_req"><path codeLine="114" d="M509.25,355.7994 C509.25,377.5494 509.25,377.7694 509.25,401.5894 " fill="none" id="users-match_req" style="stroke:#181818;stroke-width:1.0;"/><line style="stroke:#181818;stroke-width:1.0;" x1="505.25" x2="513.25" y1="351.7994" y2="351.7994"/><line style="stroke:#181818;stroke-width:1.0;" x1="505.25" x2="513.25" y1="354.7994" y2="354.7994"/><line style="stroke:#181818;stroke-width:1.0;" x1="509.25" x2="509.25" y1="355.7994" y2="347.7994"/><line style="stroke:#181818;stroke-width:1.0;" x1="509.25" x2="515.25" y1="411.5894" y2="419.5894"/><line style="stroke:#181818;stroke-width:1.0;" x1="509.25" x2="503.25" y1="411.5894" y2="419.5894"/><line style="stroke:#181818;stroke-width:1.0;" x1="509.25" x2="509.25" y1="411.5894" y2="419.5894"/><ellipse cx="509.25" cy="405.5894" fill="none" rx="4" ry="4" style="stroke:#181818;stroke-width:1.0;"/><text fill="#000000" font-family="sans-serif" font-size="13" lengthAdjust="spacing" textLength="70" x="438.25" y="380.1945">reviewed_by</text></g><!--link match_req to match_res--><g id="link_match_req_match_res"><path codeLine="115" d="M482.5,563.7494 C482.5,582.6694 482.5,587.4494 482.5,607.2394 " fill="none" id="match_req-match_res" style="stroke:#181818;stroke-width:1.0;"/><line style="stroke:#181818;stroke-width:1.0;" x1="478.5" x2="486.5" y1="559.7494" y2="559.7494"/><line style="stroke:#181818;stroke-width:1.0;" x1="478.5" x2="486.5" y1="562.7494" y2="562.7494"/><line style="stroke:#181818;stroke-width:1.0;" x1="482.5" x2="482.5" y1="563.7494" y2="555.7494"/><line style="stroke:#181818;stroke-width:1.0;" x1="486.5" x2="478.5" y1="611.2394" y2="611.2394"/><line style="stroke:#181818;stroke-width:1.0;" x1="486.5" x2="478.5" y1="608.2394" y2="608.2394"/><line style="stroke:#181818;stroke-width:1.0;" x1="482.5" x2="482.5" y1="607.2394" y2="615.2394"/><text fill="#000000" font-family="sans-serif" font-size="13" lengthAdjust="spacing" textLength="103" x="378.5" y="581.9845">match_request_id</text></g><!--link jobs to bids--><g id="link_jobs_bids"><path codeLine="117" d="M356.5,367.7794 C356.5,386.7194 356.5,381.8394 356.5,401.3694 " fill="none" id="jobs-bids" style="stroke:#181818;stroke-width:1.0;"/><line style="stroke:#181818;stroke-width:1.0;" x1="352.5" x2="360.5" y1="363.7794" y2="363.7794"/><line style="stroke:#181818;stroke-width:1.0;" x1="352.5" x2="360.5" y1="366.7794" y2="366.7794"/><line style="stroke:#181818;stroke-width:1.0;" x1="356.5" x2="356.5" y1="367.7794" y2="359.7794"/><line style="stroke:#181818;stroke-width:1.0;" x1="356.5" x2="362.5" y1="411.3694" y2="419.3694"/><line style="stroke:#181818;stroke-width:1.0;" x1="356.5" x2="350.5" y1="411.3694" y2="419.3694"/><line style="stroke:#181818;stroke-width:1.0;" x1="356.5" x2="356.5" y1="411.3694" y2="419.3694"/><ellipse cx="356.5" cy="405.3694" fill="none" rx="4" ry="4" style="stroke:#181818;stroke-width:1.0;"/><text fill="#000000" font-family="sans-serif" font-size="13" lengthAdjust="spacing" textLength="34" x="357.5" y="404.0645">job_id</text></g><!--link freelancers to bids--><g id="link_freelancers_bids"><path codeLine="118" d="M241.33,367.7794 C241.33,386.7194 241.33,381.8394 241.33,401.3694 " fill="none" id="freelancers-bids" style="stroke:#181818;stroke-width:1.0;"/><line style="stroke:#181818;stroke-width:1.0;" x1="237.33" x2="245.33" y1="363.7794" y2="363.7794"/><line style="stroke:#181818;stroke-width:1.0;" x1="237.33" x2="245.33" y1="366.7794" y2="366.7794"/><line style="stroke:#181818;stroke-width:1.0;" x1="241.33" x2="241.33" y1="367.7794" y2="359.7794"/><line style="stroke:#181818;stroke-width:1.0;" x1="241.33" x2="247.33" y1="411.3694" y2="419.3694"/><line style="stroke:#181818;stroke-width:1.0;" x1="241.33" x2="235.33" y1="411.3694" y2="419.3694"/><line style="stroke:#181818;stroke-width:1.0;" x1="241.33" x2="241.33" y1="411.3694" y2="419.3694"/><ellipse cx="241.33" cy="405.3694" fill="none" rx="4" ry="4" style="stroke:#181818;stroke-width:1.0;"/><text fill="#000000" font-family="sans-serif" font-size="13" lengthAdjust="spacing" textLength="73" x="167.33" y="386.0645">freelancer_id</text></g><!--link contracts to freelancers--><g id="link_contracts_freelancers"><path codeLine="120" d="M292.81,113.6094 C278.88,113.6094 286.75,113.6094 286.75,113.6094 C286.75,113.6094 286.75,178.6594 286.75,233.4394 " fill="none" id="contracts-freelancers" style="stroke:#181818;stroke-width:1.0;"/><line style="stroke:#181818;stroke-width:1.0;" x1="302.81" x2="310.81" y1="113.6094" y2="107.6094"/><line style="stroke:#181818;stroke-width:1.0;" x1="302.81" x2="310.81" y1="113.6094" y2="119.6094"/><line style="stroke:#181818;stroke-width:1.0;" x1="302.81" x2="310.81" y1="113.6094" y2="113.6094"/><ellipse cx="296.81" cy="113.6094" fill="none" rx="4" ry="4" style="stroke:#181818;stroke-width:1.0;"/><line style="stroke:#181818;stroke-width:1.0;" x1="290.75" x2="282.75" y1="237.4394" y2="237.4394"/><line style="stroke:#181818;stroke-width:1.0;" x1="290.75" x2="282.75" y1="234.4394" y2="234.4394"/><line style="stroke:#181818;stroke-width:1.0;" x1="286.75" x2="286.75" y1="233.4394" y2="241.4394"/><text fill="#000000" font-family="sans-serif" font-size="13" lengthAdjust="spacing" textLength="73" x="287.75" y="179.9845">freelancer_id</text></g><!--link contracts to users--><g id="link_contracts_users"><path codeLine="121" d="M451.5,190.7794 C451.5,245.5594 451.5,300.6094 451.5,300.6094 C451.5,300.6094 450.64,300.6094 460.68,300.6094 " fill="none" id="contracts-users" style="stroke:#181818;stroke-width:1.0;"/><line style="stroke:#181818;stroke-width:1.0;" x1="451.5" x2="445.5" y1="180.7794" y2="172.7794"/><line style="stroke:#181818;stroke-width:1.0;" x1="451.5" x2="457.5" y1="180.7794" y2="172.7794"/><line style="stroke:#181818;stroke-width:1.0;" x1="451.5" x2="451.5" y1="180.7794" y2="172.7794"/><ellipse cx="451.5" cy="186.7794" fill="none" rx="4" ry="4" style="stroke:#181818;stroke-width:1.0;"/><line style="stroke:#181818;stroke-width:1.0;" x1="464.68" x2="464.68" y1="296.6094" y2="304.6094"/><line style="stroke:#181818;stroke-width:1.0;" x1="461.68" x2="461.68" y1="296.6094" y2="304.6094"/><line style="stroke:#181818;stroke-width:1.0;" x1="460.68" x2="468.68" y1="300.6094" y2="300.6094"/><text fill="#000000" font-family="sans-serif" font-size="13" lengthAdjust="spacing" textLength="48" x="452.5" y="241.7745">client_id</text></g><!--link time_entries to freelancers--><g id="link_time_entries_freelancers"><path codeLine="123" d="M235.25,199.6494 C235.25,219.2794 235.25,214.5394 235.25,233.5694 " fill="none" id="time_entries-freelancers" style="stroke:#181818;stroke-width:1.0;"/><line style="stroke:#181818;stroke-width:1.0;" x1="235.25" x2="229.25" y1="189.6494" y2="181.6494"/><line style="stroke:#181818;stroke-width:1.0;" x1="235.25" x2="241.25" y1="189.6494" y2="181.6494"/><line style="stroke:#181818;stroke-width:1.0;" x1="235.25" x2="235.25" y1="189.6494" y2="181.6494"/><ellipse cx="235.25" cy="195.6494" fill="none" rx="4" ry="4" style="stroke:#181818;stroke-width:1.0;"/><line style="stroke:#181818;stroke-width:1.0;" x1="239.25" x2="231.25" y1="237.5694" y2="237.5694"/><line style="stroke:#181818;stroke-width:1.0;" x1="239.25" x2="231.25" y1="234.5694" y2="234.5694"/><line style="stroke:#181818;stroke-width:1.0;" x1="235.25" x2="235.25" y1="233.5694" y2="241.5694"/><text fill="#000000" font-family="sans-serif" font-size="13" lengthAdjust="spacing" textLength="73" x="161.25" y="208.1045">freelancer_id</text></g><rect fill="#FAFAFA" height="119.6563" id="_legend" rx="7.5" ry="7.5" style="stroke:#000000;stroke-width:1.0;" width="209" x="407.5" y="804.875"/><text fill="#000000" font-family="sans-serif" font-size="14" font-weight="bold" lengthAdjust="spacing" textLength="50" x="416.5" y="826.4082">Symbol</text><text fill="#000000" font-family="sans-serif" font-size="14" font-weight="bold" lengthAdjust="spacing" textLength="71" x="474.5" y="826.4082">Betydning</text><text fill="#000000" font-family="sans-serif" font-size="14" lengthAdjust="spacing" textLength="4" x="412.5" y="844.0176">&#160;</text><text fill="#1565C0" font-family="sans-serif" font-size="14" font-weight="bold" lengthAdjust="spacing" textLength="13" x="416.5" y="844.0176">id</text><text fill="#000000" font-family="sans-serif" font-size="14" lengthAdjust="spacing" textLength="4" x="429.5" y="844.0176">&#160;</text><text fill="#000000" font-family="sans-serif" font-size="14" lengthAdjust="spacing" textLength="118" x="474.5" y="844.0176">Prim&#195;&#166;rn&#195;&#184;gle (PK)</text><text fill="#000000" font-family="sans-serif" font-size="14" lengthAdjust="spacing" textLength="4" x="412.5" y="861.627">&#160;</text><text fill="#E65100" font-family="sans-serif" font-size="14" lengthAdjust="spacing" textLength="37" x="416.5" y="861.627">xxx_id</text><text fill="#000000" font-family="sans-serif" font-size="14" lengthAdjust="spacing" textLength="4" x="453.5" y="861.627">&#160;</text><text fill="#000000" font-family="sans-serif" font-size="14" lengthAdjust="spacing" textLength="133" x="474.5" y="861.627">Fremmedn&#195;&#184;gle (FK)</text><text fill="#000000" font-family="sans-serif" font-size="14" lengthAdjust="spacing" textLength="29" x="416.5" y="879.2363">}o--||</text><text fill="#000000" font-family="sans-serif" font-size="14" lengthAdjust="spacing" textLength="79" x="474.5" y="879.2363">Mange-til-en</text><text fill="#000000" font-family="sans-serif" font-size="14" lengthAdjust="spacing" textLength="29" x="416.5" y="896.8457">||--o{</text><text fill="#000000" font-family="sans-serif" font-size="14" lengthAdjust="spacing" textLength="80" x="474.5" y="896.8457">En-til-mange</text><text fill="#000000" font-family="sans-serif" font-size="14" lengthAdjust="spacing" textLength="22" x="416.5" y="914.4551">||--||</text><text fill="#000000" font-family="sans-serif" font-size="14" lengthAdjust="spacing" textLength="53" x="474.5" y="914.4551">En-til-en</text><line style="stroke:#000000;stroke-width:1.0;" x1="412.5" x2="611.5" y1="811.875" y2="811.875"/><line style="stroke:#000000;stroke-width:1.0;" x1="412.5" x2="611.5" y1="829.4844" y2="829.4844"/><line style="stroke:#000000;stroke-width:1.0;" x1="412.5" x2="611.5" y1="847.0938" y2="847.0938"/><line style="stroke:#000000;stroke-width:1.0;" x1="412.5" x2="611.5" y1="864.7031" y2="864.7031"/><line style="stroke:#000000;stroke-width:1.0;" x1="412.5" x2="611.5" y1="882.3125" y2="882.3125"/><line style="stroke:#000000;stroke-width:1.0;" x1="412.5" x2="611.5" y1="899.9219" y2="899.9219"/><line style="stroke:#000000;stroke-width:1.0;" x1="412.5" x2="611.5" y1="917.5313" y2="917.5313"/><line style="stroke:#000000;stroke-width:1.0;" x1="412.5" x2="412.5" y1="811.875" y2="917.5313"/><line style="stroke:#000000;stroke-width:1.0;" x1="470.5" x2="470.5" y1="811.875" y2="917.5313"/><line style="stroke:#000000;stroke-width:1.0;" x1="611.5" x2="611.5" y1="811.875" y2="917.5313"/><!--SRC=[dLRDRjj64BxpAQOAq5XerTX5RHI2Aa3MZwt6aGr9xIa0iI97r5haBhjSsXAY047o7Btaq5CVe9UYGFCcUO6-GcVv8r6_KG8Uk3j_E_FDxEmyXSwFyE7znxT_VdppExJx5PSpJx40RhWtqN3Inr1MsDX7LvUjf_0hZr1LuUmK71HQCH-1_boZHWNI0_7XtRz_UJugz9dcKg0YfOwSnb4L6jrAmBGpuSA3iIyVuHiOSTUbRKLplpALnk1K9ppIQZzm5mNf3H0QOOZ2vJDeV0jZxiMAlBOiEfVE7qW_7f8ZGg_YQ37D0kcY3oVRVfOjAvfo4J8Jfiy5wdc889MUo08Z4P_3AmlWaZbJJybOk4tfImLFEWtp6OvKBggC-iFtvYDgGodvc14lpindlIuUYHu5iy-ezPMBOt8AxfwVpCfG6zLhZX6eFZaxlpXldjPdjMS9eLvxDgelfJkfT2RQlZW_Eos8MeGdWVFc_N___BtvXyOlm-jsRzXjDeRTszvUESlA82cnM4- -YwaGeXAm298Lr6g3E6GZ5b6sY5-l9z1H4DmjGnNYcBkqnu1ndxOQPvf0MPeCbHnp7rE3-MQd1GhK76Yl4PMa15U1XQ5jbaJXaSqSpHyCUII9neGvxm0CmyODeN14-6E5LDt2oUClx7TwB5Y0USW03jFeIJLVKI8KN2fZUXkNbMsR2iZtqnFJvJvu2Zfhh4HhTMo2iiDHE0LVviXKPCknZRCGbM4QrxdGdm3lvzlBmH7GtSjH6e5PxFG_lTE7qD9Cnr41gaELtOKNZM7pkjkxEiAvf3dP2d-BCTAfcqlIvs9DB0fnYwRmWUCZklPeNapCPaYR7aMnl-7GtkIl1R5-ldn0QeI-7JbIvLarrHSmEivPaaKSKEOTOkMsM2I5SU-U_gEya6oFXKKY1YDCchbDnqJK-ezBqMMtrJBf-HgQjxrXlz4yvWRIiv72OHRxaDY5_zwhaMU03Dhf9hqXeOmeMuggi81C8KDEycWvMNQMkoye5yUdswRtk9KRpdtxH2VhjWRzzbLtCEot-yVLlkO1skQbv5aFBXA-81g2xXwTZN0cCbRHMeLzpcNkjs-I1sfmtRqxr6kMhyThMQai5jdpL8LIzcoKBAlOiHUBIaM-objgTQtb9i99gygaLlsWcZIpH6A7jJMv3OEfFxi42zsXPAquHfJYM5tzwaQlslOpkHU7NSn5DiDTrN26Nr5tMtvBV0dtig1BPb8hLDDHTWzLmatxgjrh7IY1TC82PKPOghB5Jp2O1oFfczKbZNkkC3Femh1WOxgYUOkxPhBAHoSIkLCyeBds3vLFjt1ozxoyeP-FNBEPRGmibJiAWm3TbMfdgMg0UBbukQ3b2oOyJCPW51dNS99CBQ0j4bPWXDQucNR6JrGfy3Hywty0]--></g></svg>