<?xml version="1.0" encoding="us-ascii" standalone="no"?><svg xmlns="http://www.w3.org/2000/svg" xmlns:xlink="http://www.w3.org/1999/xlink" contentStyleType="text/css" height="740px" preserveAspectRatio="none" style="width:2583px;height:740px;background:#FFFFFF;" version="1.1" viewBox="0 0 2583 740" width="2583px" zoomAndPan="magnify"><defs/><g><text fill="#000000" font-family="sans-serif" font-size="14" font-weight="bold" lengthAdjust="spacing" textLength="319" x="1125.25" y="24.5332">SoluTalent &#226;&#8364;&#8221; Komplet datamodel (appendix)</text><!--class auth_users--><g id="elem_auth_users"><rect codeLine="16" fill="#F1F1F1" height="76.3125" id="auth_users" rx="2.5" ry="2.5" style="stroke:#181818;stroke-width:0.5;" width="127" x="703.5" y="493.6094"/><ellipse cx="718.5" cy="514.9609" fill="#ADD1B2" rx="11" ry="11" style="stroke:#181818;stroke-width:1.0;"/><path d="M717.3594,515.7578 L717.3594,518.2578 L721.6875,518.2578 L721.6875,517.3359 Q721.6875,516.7266 721.9219,516.4609 Q722.1719,516.1953 722.5469,516.1953 Q722.9219,516.1953 723.1563,516.4609 Q723.3906,516.7266 723.3906,517.3359 L723.3906,519.9609 L715.3906,519.9609 Q714.7656,519.9609 714.5,519.7266 Q714.25,519.4922 714.25,519.1016 Q714.25,518.7266 714.5156,518.4922 Q714.7813,518.2578 715.3906,518.2578 L715.6563,518.2578 L715.6563,511.6016 L715.3906,511.6016 Q714.7656,511.6016 714.5,511.3672 Q714.25,511.1328 714.25,510.7422 Q714.25,510.3672 714.5,510.1328 Q714.7656,509.8984 715.3906,509.8984 L723.0156,509.8984 L723.0156,512.4922 Q723.0156,513.1016 722.7813,513.3672 Q722.5625,513.6172 722.1719,513.6172 Q721.7969,513.6172 721.5625,513.3672 Q721.3281,513.1016 721.3281,512.4922 L721.3281,511.6016 L717.3594,511.6016 L717.3594,514.0547 L718.8438,514.0547 Q718.8438,513.3984 718.9688,513.2109 Q719.2344,512.8047 719.7031,512.8047 Q720.0781,512.8047 720.3125,513.0703 Q720.5469,513.3203 720.5469,513.9297 L720.5469,515.8984 Q720.5469,516.4453 720.4219,516.6328 Q720.1563,517.0234 719.7031,517.0234 Q719.2344,517.0234 718.9688,516.6172 Q718.8438,516.4297 718.8438,515.7578 L717.3594,515.7578 Z " fill="#000000"/><text fill="#000000" font-family="sans-serif" font-size="12" font-style="italic" lengthAdjust="spacing" textLength="99" x="730.5" y="511.0664">&#171;Supabase Auth&#187;</text><text fill="#000000" font-family="sans-serif" font-size="14" lengthAdjust="spacing" textLength="67" x="746.5" y="528.2363">auth.users</text><line style="stroke:#181818;stroke-width:0.5;" x1="704.5" x2="829.5" y1="536.3125" y2="536.3125"/><ellipse cx="714.5" cy="550.6172" fill="#000000" rx="3" ry="3" style="stroke:#000000;stroke-width:1.0;"/><text fill="#000000" font-family="sans-serif" font-size="14" lengthAdjust="spacing" textLength="50" x="723.5" y="554.8457">id : uuid</text><line style="stroke:#181818;stroke-width:0.5;" x1="704.5" x2="829.5" y1="561.9219" y2="561.9219"/></g><!--class profiles--><g id="elem_profiles"><rect codeLine="20" fill="#F1F1F1" height="118.4375" id="profiles" rx="2.5" ry="2.5" style="stroke:#181818;stroke-width:0.5;" width="118" x="242" y="285.6094"/><ellipse cx="275" cy="301.6094" fill="#ADD1B2" rx="11" ry="11" style="stroke:#181818;stroke-width:1.0;"/><path d="M273.8594,302.4063 L273.8594,304.9063 L278.1875,304.9063 L278.1875,303.9844 Q278.1875,303.375 278.4219,303.1094 Q278.6719,302.8438 279.0469,302.8438 Q279.4219,302.8438 279.6563,303.1094 Q279.8906,303.375 279.8906,303.9844 L279.8906,306.6094 L271.8906,306.6094 Q271.2656,306.6094 271,306.375 Q270.75,306.1406 270.75,305.75 Q270.75,305.375 271.0156,305.1406 Q271.2813,304.9063 271.8906,304.9063 L272.1563,304.9063 L272.1563,298.25 L271.8906,298.25 Q271.2656,298.25 271,298.0156 Q270.75,297.7813 270.75,297.3906 Q270.75,297.0156 271,296.7813 Q271.2656,296.5469 271.8906,296.5469 L279.5156,296.5469 L279.5156,299.1406 Q279.5156,299.75 279.2813,300.0156 Q279.0625,300.2656 278.6719,300.2656 Q278.2969,300.2656 278.0625,300.0156 Q277.8281,299.75 277.8281,299.1406 L277.8281,298.25 L273.8594,298.25 L273.8594,300.7031 L275.3438,300.7031 Q275.3438,300.0469 275.4688,299.8594 Q275.7344,299.4531 276.2031,299.4531 Q276.5781,299.4531 276.8125,299.7188 Q277.0469,299.9688 277.0469,300.5781 L277.0469,302.5469 Q277.0469,303.0938 276.9219,303.2813 Q276.6563,303.6719 276.2031,303.6719 Q275.7344,303.6719 275.4688,303.2656 Q275.3438,303.0781 275.3438,302.4063 L273.8594,302.4063 Z " fill="#000000"/><text fill="#000000" font-family="sans-serif" font-size="14" lengthAdjust="spacing" textLength="46" x="293" y="307.3379">profiles</text><line style="stroke:#181818;stroke-width:0.5;" x1="243" x2="359" y1="317.6094" y2="317.6094"/><ellipse cx="253" cy="331.9141" fill="#000000" rx="3" ry="3" style="stroke:#000000;stroke-width:1.0;"/><text fill="#000000" font-family="sans-serif" font-size="14" lengthAdjust="spacing" textLength="50" x="262" y="336.1426">id : uuid</text><text fill="#000000" font-family="sans-serif" font-size="14" lengthAdjust="spacing" textLength="86" x="262" y="353.752">user_id : uuid</text><text fill="#000000" font-family="sans-serif" font-size="14" lengthAdjust="spacing" textLength="67" x="262" y="371.3613">email : text</text><text fill="#000000" font-family="sans-serif" font-size="14" lengthAdjust="spacing" textLength="92" x="262" y="388.9707">role : app_role</text><line style="stroke:#181818;stroke-width:0.5;" x1="243" x2="359" y1="396.0469" y2="396.0469"/></g><!--class user_roles--><g id="elem_user_roles"><rect codeLine="27" fill="#F1F1F1" height="100.8281" id="user_roles" rx="2.5" ry="2.5" style="stroke:#181818;stroke-width:0.5;" width="118" x="466" y="294.1094"/><ellipse cx="489.55" cy="310.1094" fill="#ADD1B2" rx="11" ry="11" style="stroke:#181818;stroke-width:1.0;"/><path d="M488.4094,310.9063 L488.4094,313.4063 L492.7375,313.4063 L492.7375,312.4844 Q492.7375,311.875 492.9719,311.6094 Q493.2219,311.3438 493.5969,311.3438 Q493.9719,311.3438 494.2063,311.6094 Q494.4406,311.875 494.4406,312.4844 L494.4406,315.1094 L486.4406,315.1094 Q485.8156,315.1094 485.55,314.875 Q485.3,314.6406 485.3,314.25 Q485.3,313.875 485.5656,313.6406 Q485.8313,313.4063 486.4406,313.4063 L486.7063,313.4063 L486.7063,306.75 L486.4406,306.75 Q485.8156,306.75 485.55,306.5156 Q485.3,306.2813 485.3,305.8906 Q485.3,305.5156 485.55,305.2813 Q485.8156,305.0469 486.4406,305.0469 L494.0656,305.0469 L494.0656,307.6406 Q494.0656,308.25 493.8313,308.5156 Q493.6125,308.7656 493.2219,308.7656 Q492.8469,308.7656 492.6125,308.5156 Q492.3781,308.25 492.3781,307.6406 L492.3781,306.75 L488.4094,306.75 L488.4094,309.2031 L489.8938,309.2031 Q489.8938,308.5469 490.0188,308.3594 Q490.2844,307.9531 490.7531,307.9531 Q491.1281,307.9531 491.3625,308.2188 Q491.5969,308.4688 491.5969,309.0781 L491.5969,311.0469 Q491.5969,311.5938 491.4719,311.7813 Q491.2063,312.1719 490.7531,312.1719 Q490.2844,312.1719 490.0188,311.7656 Q489.8938,311.5781 489.8938,310.9063 L488.4094,310.9063 Z " fill="#000000"/><text fill="#000000" font-family="sans-serif" font-size="14" lengthAdjust="spacing" textLength="67" x="505.45" y="315.8379">user_roles</text><line style="stroke:#181818;stroke-width:0.5;" x1="467" x2="583" y1="326.1094" y2="326.1094"/><ellipse cx="477" cy="340.4141" fill="#000000" rx="3" ry="3" style="stroke:#000000;stroke-width:1.0;"/><text fill="#000000" font-family="sans-serif" font-size="14" lengthAdjust="spacing" textLength="50" x="486" y="344.6426">id : uuid</text><text fill="#000000" font-family="sans-serif" font-size="14" lengthAdjust="spacing" textLength="86" x="486" y="362.252">user_id : uuid</text><text fill="#000000" font-family="sans-serif" font-size="14" lengthAdjust="spacing" textLength="92" x="486" y="379.8613">role : app_role</text><line style="stroke:#181818;stroke-width:0.5;" x1="467" x2="583" y1="386.9375" y2="386.9375"/></g><!--class user_sessions--><g id="elem_user_sessions"><rect codeLine="33" fill="#F1F1F1" height="100.8281" id="user_sessions" rx="2.5" ry="2.5" style="stroke:#181818;stroke-width:0.5;" width="162" x="619" y="294.1094"/><ellipse cx="651.55" cy="310.1094" fill="#ADD1B2" rx="11" ry="11" style="stroke:#181818;stroke-width:1.0;"/><path d="M650.4094,310.9063 L650.4094,313.4063 L654.7375,313.4063 L654.7375,312.4844 Q654.7375,311.875 654.9719,311.6094 Q655.2219,311.3438 655.5969,311.3438 Q655.9719,311.3438 656.2063,311.6094 Q656.4406,311.875 656.4406,312.4844 L656.4406,315.1094 L648.4406,315.1094 Q647.8156,315.1094 647.55,314.875 Q647.3,314.6406 647.3,314.25 Q647.3,313.875 647.5656,313.6406 Q647.8313,313.4063 648.4406,313.4063 L648.7063,313.4063 L648.7063,306.75 L648.4406,306.75 Q647.8156,306.75 647.55,306.5156 Q647.3,306.2813 647.3,305.8906 Q647.3,305.5156 647.55,305.2813 Q647.8156,305.0469 648.4406,305.0469 L656.0656,305.0469 L656.0656,307.6406 Q656.0656,308.25 655.8313,308.5156 Q655.6125,308.7656 655.2219,308.7656 Q654.8469,308.7656 654.6125,308.5156 Q654.3781,308.25 654.3781,307.6406 L654.3781,306.75 L650.4094,306.75 L650.4094,309.2031 L651.8938,309.2031 Q651.8938,308.5469 652.0188,308.3594 Q652.2844,307.9531 652.7531,307.9531 Q653.1281,307.9531 653.3625,308.2188 Q653.5969,308.4688 653.5969,309.0781 L653.5969,311.0469 Q653.5969,311.5938 653.4719,311.7813 Q653.2063,312.1719 652.7531,312.1719 Q652.2844,312.1719 652.0188,311.7656 Q651.8938,311.5781 651.8938,310.9063 L650.4094,310.9063 Z " fill="#000000"/><text fill="#000000" font-family="sans-serif" font-size="14" lengthAdjust="spacing" textLength="91" x="669.45" y="315.8379">user_sessions</text><line style="stroke:#181818;stroke-width:0.5;" x1="620" x2="780" y1="326.1094" y2="326.1094"/><ellipse cx="630" cy="340.4141" fill="#000000" rx="3" ry="3" style="stroke:#000000;stroke-width:1.0;"/><text fill="#000000" font-family="sans-serif" font-size="14" lengthAdjust="spacing" textLength="50" x="639" y="344.6426">id : uuid</text><text fill="#000000" font-family="sans-serif" font-size="14" lengthAdjust="spacing" textLength="86" x="639" y="362.252">user_id : uuid</text><text fill="#000000" font-family="sans-serif" font-size="14" lengthAdjust="spacing" textLength="136" x="639" y="379.8613">login_at : timestamptz</text><line style="stroke:#181818;stroke-width:0.5;" x1="620" x2="780" y1="386.9375" y2="386.9375"/></g><!--class freelancers--><g id="elem_freelancers"><rect codeLine="41" fill="#F1F1F1" height="118.4375" id="freelancers" rx="2.5" ry="2.5" style="stroke:#181818;stroke-width:0.5;" width="115" x="1742.5" y="472.6094"/><ellipse cx="1762.9" cy="488.6094" fill="#ADD1B2" rx="11" ry="11" style="stroke:#181818;stroke-width:1.0;"/><path d="M1761.7594,489.4063 L1761.7594,491.9063 L1766.0875,491.9063 L1766.0875,490.9844 Q1766.0875,490.375 1766.3219,490.1094 Q1766.5719,489.8438 1766.9469,489.8438 Q1767.3219,489.8438 1767.5563,490.1094 Q1767.7906,490.375 1767.7906,490.9844 L1767.7906,493.6094 L1759.7906,493.6094 Q1759.1656,493.6094 1758.9,493.375 Q1758.65,493.1406 1758.65,492.75 Q1758.65,492.375 1758.9156,492.1406 Q1759.1813,491.9063 1759.7906,491.9063 L1760.0563,491.9063 L1760.0563,485.25 L1759.7906,485.25 Q1759.1656,485.25 1758.9,485.0156 Q1758.65,484.7813 1758.65,484.3906 Q1758.65,484.0156 1758.9,483.7813 Q1759.1656,483.5469 1759.7906,483.5469 L1767.4156,483.5469 L1767.4156,486.1406 Q1767.4156,486.75 1767.1813,487.0156 Q1766.9625,487.2656 1766.5719,487.2656 Q1766.1969,487.2656 1765.9625,487.0156 Q1765.7281,486.75 1765.7281,486.1406 L1765.7281,485.25 L1761.7594,485.25 L1761.7594,487.7031 L1763.2438,487.7031 Q1763.2438,487.0469 1763.3688,486.8594 Q1763.6344,486.4531 1764.1031,486.4531 Q1764.4781,486.4531 1764.7125,486.7188 Q1764.9469,486.9688 1764.9469,487.5781 L1764.9469,489.5469 Q1764.9469,490.0938 1764.8219,490.2813 Q1764.5563,490.6719 1764.1031,490.6719 Q1763.6344,490.6719 1763.3688,490.2656 Q1763.2438,490.0781 1763.2438,489.4063 L1761.7594,489.4063 Z " fill="#000000"/><text fill="#000000" font-family="sans-serif" font-size="14" lengthAdjust="spacing" textLength="71" x="1778.1" y="494.3379">freelancers</text><line style="stroke:#181818;stroke-width:0.5;" x1="1743.5" x2="1856.5" y1="504.6094" y2="504.6094"/><ellipse cx="1753.5" cy="518.9141" fill="#000000" rx="3" ry="3" style="stroke:#000000;stroke-width:1.0;"/><text fill="#000000" font-family="sans-serif" font-size="14" lengthAdjust="spacing" textLength="50" x="1762.5" y="523.1426">id : uuid</text><text fill="#000000" font-family="sans-serif" font-size="14" lengthAdjust="spacing" textLength="69" x="1762.5" y="540.752">name : text</text><text fill="#000000" font-family="sans-serif" font-size="14" lengthAdjust="spacing" textLength="89" x="1762.5" y="558.3613">category : text</text><text fill="#000000" font-family="sans-serif" font-size="14" lengthAdjust="spacing" textLength="87" x="1762.5" y="575.9707">seniority : text</text><line style="stroke:#181818;stroke-width:0.5;" x1="1743.5" x2="1856.5" y1="583.0469" y2="583.0469"/></g><!--class freelancer_skills--><g id="elem_freelancer_skills"><rect codeLine="48" fill="#F1F1F1" height="136.0469" id="freelancer_skills" rx="2.5" ry="2.5" style="stroke:#181818;stroke-width:0.5;" width="185" x="1598.5" y="276.6094"/><ellipse cx="1636.45" cy="292.6094" fill="#ADD1B2" rx="11" ry="11" style="stroke:#181818;stroke-width:1.0;"/><path d="M1635.3094,293.4063 L1635.3094,295.9063 L1639.6375,295.9063 L1639.6375,294.9844 Q1639.6375,294.375 1639.8719,294.1094 Q1640.1219,293.8438 1640.4969,293.8438 Q1640.8719,293.8438 1641.1063,294.1094 Q1641.3406,294.375 1641.3406,294.9844 L1641.3406,297.6094 L1633.3406,297.6094 Q1632.7156,297.6094 1632.45,297.375 Q1632.2,297.1406 1632.2,296.75 Q1632.2,296.375 1632.4656,296.1406 Q1632.7313,295.9063 1633.3406,295.9063 L1633.6063,295.9063 L1633.6063,289.25 L1633.3406,289.25 Q1632.7156,289.25 1632.45,289.0156 Q1632.2,288.7813 1632.2,288.3906 Q1632.2,288.0156 1632.45,287.7813 Q1632.7156,287.5469 1633.3406,287.5469 L1640.9656,287.5469 L1640.9656,290.1406 Q1640.9656,290.75 1640.7313,291.0156 Q1640.5125,291.2656 1640.1219,291.2656 Q1639.7469,291.2656 1639.5125,291.0156 Q1639.2781,290.75 1639.2781,290.1406 L1639.2781,289.25 L1635.3094,289.25 L1635.3094,291.7031 L1636.7938,291.7031 Q1636.7938,291.0469 1636.9188,290.8594 Q1637.1844,290.4531 1637.6531,290.4531 Q1638.0281,290.4531 1638.2625,290.7188 Q1638.4969,290.9688 1638.4969,291.5781 L1638.4969,293.5469 Q1638.4969,294.0938 1638.3719,294.2813 Q1638.1063,294.6719 1637.6531,294.6719 Q1637.1844,294.6719 1636.9188,294.2656 Q1636.7938,294.0781 1636.7938,293.4063 L1635.3094,293.4063 Z " fill="#000000"/><text fill="#000000" font-family="sans-serif" font-size="14" lengthAdjust="spacing" textLength="102" x="1655.55" y="298.3379">freelancer_skills</text><line style="stroke:#181818;stroke-width:0.5;" x1="1599.5" x2="1782.5" y1="308.6094" y2="308.6094"/><ellipse cx="1609.5" cy="322.9141" fill="#000000" rx="3" ry="3" style="stroke:#000000;stroke-width:1.0;"/><text fill="#000000" font-family="sans-serif" font-size="14" lengthAdjust="spacing" textLength="50" x="1618.5" y="327.1426">id : uuid</text><text fill="#000000" font-family="sans-serif" font-size="14" lengthAdjust="spacing" textLength="122" x="1618.5" y="344.752">freelancer_id : uuid</text><text fill="#000000" font-family="sans-serif" font-size="14" lengthAdjust="spacing" textLength="57" x="1618.5" y="362.3613">skill : text</text><text fill="#000000" font-family="sans-serif" font-size="14" lengthAdjust="spacing" textLength="102" x="1618.5" y="379.9707">proficiency : text</text><text fill="#000000" font-family="sans-serif" font-size="14" lengthAdjust="spacing" textLength="159" x="1618.5" y="397.5801">years_of_experience : int</text><line style="stroke:#181818;stroke-width:0.5;" x1="1599.5" x2="1782.5" y1="404.6563" y2="404.6563"/></g><!--class hiring_specialists--><g id="elem_hiring_specialists"><rect codeLine="56" fill="#F1F1F1" height="83.2188" id="hiring_specialists" rx="2.5" ry="2.5" style="stroke:#181818;stroke-width:0.5;" width="140" x="2222" y="650.6094"/><ellipse cx="2237" cy="666.6094" fill="#ADD1B2" rx="11" ry="11" style="stroke:#181818;stroke-width:1.0;"/><path d="M2235.8594,667.4063 L2235.8594,669.9063 L2240.1875,669.9063 L2240.1875,668.9844 Q2240.1875,668.375 2240.4219,668.1094 Q2240.6719,667.8438 2241.0469,667.8438 Q2241.4219,667.8438 2241.6563,668.1094 Q2241.8906,668.375 2241.8906,668.9844 L2241.8906,671.6094 L2233.8906,671.6094 Q2233.2656,671.6094 2233,671.375 Q2232.75,671.1406 2232.75,670.75 Q2232.75,670.375 2233.0156,670.1406 Q2233.2813,669.9063 2233.8906,669.9063 L2234.1563,669.9063 L2234.1563,663.25 L2233.8906,663.25 Q2233.2656,663.25 2233,663.0156 Q2232.75,662.7813 2232.75,662.3906 Q2232.75,662.0156 2233,661.7813 Q2233.2656,661.5469 2233.8906,661.5469 L2241.5156,661.5469 L2241.5156,664.1406 Q2241.5156,664.75 2241.2813,665.0156 Q2241.0625,665.2656 2240.6719,665.2656 Q2240.2969,665.2656 2240.0625,665.0156 Q2239.8281,664.75 2239.8281,664.1406 L2239.8281,663.25 L2235.8594,663.25 L2235.8594,665.7031 L2237.3438,665.7031 Q2237.3438,665.0469 2237.4688,664.8594 Q2237.7344,664.4531 2238.2031,664.4531 Q2238.5781,664.4531 2238.8125,664.7188 Q2239.0469,664.9688 2239.0469,665.5781 L2239.0469,667.5469 Q2239.0469,668.0938 2238.9219,668.2813 Q2238.6563,668.6719 2238.2031,668.6719 Q2237.7344,668.6719 2237.4688,668.2656 Q2237.3438,668.0781 2237.3438,667.4063 L2235.8594,667.4063 Z " fill="#000000"/><text fill="#000000" font-family="sans-serif" font-size="14" lengthAdjust="spacing" textLength="108" x="2251" y="672.3379">hiring_specialists</text><line style="stroke:#181818;stroke-width:0.5;" x1="2223" x2="2361" y1="682.6094" y2="682.6094"/><ellipse cx="2233" cy="696.9141" fill="#000000" rx="3" ry="3" style="stroke:#000000;stroke-width:1.0;"/><text fill="#000000" font-family="sans-serif" font-size="14" lengthAdjust="spacing" textLength="50" x="2242" y="701.1426">id : uuid</text><text fill="#000000" font-family="sans-serif" font-size="14" lengthAdjust="spacing" textLength="69" x="2242" y="718.752">name : text</text><line style="stroke:#181818;stroke-width:0.5;" x1="2223" x2="2361" y1="725.8281" y2="725.8281"/></g><!--class jobs--><g id="elem_jobs"><rect codeLine="63" fill="#F1F1F1" height="100.8281" id="jobs" rx="2.5" ry="2.5" style="stroke:#181818;stroke-width:0.5;" width="185" x="2199.5" y="481.1094"/><ellipse cx="2274.75" cy="497.1094" fill="#ADD1B2" rx="11" ry="11" style="stroke:#181818;stroke-width:1.0;"/><path d="M2273.6094,497.9063 L2273.6094,500.4063 L2277.9375,500.4063 L2277.9375,499.4844 Q2277.9375,498.875 2278.1719,498.6094 Q2278.4219,498.3438 2278.7969,498.3438 Q2279.1719,498.3438 2279.4063,498.6094 Q2279.6406,498.875 2279.6406,499.4844 L2279.6406,502.1094 L2271.6406,502.1094 Q2271.0156,502.1094 2270.75,501.875 Q2270.5,501.6406 2270.5,501.25 Q2270.5,500.875 2270.7656,500.6406 Q2271.0313,500.4063 2271.6406,500.4063 L2271.9063,500.4063 L2271.9063,493.75 L2271.6406,493.75 Q2271.0156,493.75 2270.75,493.5156 Q2270.5,493.2813 2270.5,492.8906 Q2270.5,492.5156 2270.75,492.2813 Q2271.0156,492.0469 2271.6406,492.0469 L2279.2656,492.0469 L2279.2656,494.6406 Q2279.2656,495.25 2279.0313,495.5156 Q2278.8125,495.7656 2278.4219,495.7656 Q2278.0469,495.7656 2277.8125,495.5156 Q2277.5781,495.25 2277.5781,494.6406 L2277.5781,493.75 L2273.6094,493.75 L2273.6094,496.2031 L2275.0938,496.2031 Q2275.0938,495.5469 2275.2188,495.3594 Q2275.4844,494.9531 2275.9531,494.9531 Q2276.3281,494.9531 2276.5625,495.2188 Q2276.7969,495.4688 2276.7969,496.0781 L2276.7969,498.0469 Q2276.7969,498.5938 2276.6719,498.7813 Q2276.4063,499.1719 2275.9531,499.1719 Q2275.4844,499.1719 2275.2188,498.7656 Q2275.0938,498.5781 2275.0938,497.9063 L2273.6094,497.9063 Z " fill="#000000"/><text fill="#000000" font-family="sans-serif" font-size="14" lengthAdjust="spacing" textLength="26" x="2295.25" y="502.8379">jobs</text><line style="stroke:#181818;stroke-width:0.5;" x1="2200.5" x2="2383.5" y1="513.1094" y2="513.1094"/><ellipse cx="2210.5" cy="527.4141" fill="#000000" rx="3" ry="3" style="stroke:#000000;stroke-width:1.0;"/><text fill="#000000" font-family="sans-serif" font-size="14" lengthAdjust="spacing" textLength="50" x="2219.5" y="531.6426">id : uuid</text><text fill="#000000" font-family="sans-serif" font-size="14" lengthAdjust="spacing" textLength="56" x="2219.5" y="549.252">title : text</text><text fill="#000000" font-family="sans-serif" font-size="14" lengthAdjust="spacing" textLength="159" x="2219.5" y="566.8613">hiring_specialist_id : uuid</text><line style="stroke:#181818;stroke-width:0.5;" x1="2200.5" x2="2383.5" y1="573.9375" y2="573.9375"/></g><!--class projects--><g id="elem_projects"><rect codeLine="69" fill="#F1F1F1" height="100.8281" id="projects" rx="2.5" ry="2.5" style="stroke:#181818;stroke-width:0.5;" width="133" x="1168.5" y="481.1094"/><ellipse cx="1206.45" cy="497.1094" fill="#ADD1B2" rx="11" ry="11" style="stroke:#181818;stroke-width:1.0;"/><path d="M1205.3094,497.9063 L1205.3094,500.4063 L1209.6375,500.4063 L1209.6375,499.4844 Q1209.6375,498.875 1209.8719,498.6094 Q1210.1219,498.3438 1210.4969,498.3438 Q1210.8719,498.3438 1211.1063,498.6094 Q1211.3406,498.875 1211.3406,499.4844 L1211.3406,502.1094 L1203.3406,502.1094 Q1202.7156,502.1094 1202.45,501.875 Q1202.2,501.6406 1202.2,501.25 Q1202.2,500.875 1202.4656,500.6406 Q1202.7313,500.4063 1203.3406,500.4063 L1203.6063,500.4063 L1203.6063,493.75 L1203.3406,493.75 Q1202.7156,493.75 1202.45,493.5156 Q1202.2,493.2813 1202.2,492.8906 Q1202.2,492.5156 1202.45,492.2813 Q1202.7156,492.0469 1203.3406,492.0469 L1210.9656,492.0469 L1210.9656,494.6406 Q1210.9656,495.25 1210.7313,495.5156 Q1210.5125,495.7656 1210.1219,495.7656 Q1209.7469,495.7656 1209.5125,495.5156 Q1209.2781,495.25 1209.2781,494.6406 L1209.2781,493.75 L1205.3094,493.75 L1205.3094,496.2031 L1206.7938,496.2031 Q1206.7938,495.5469 1206.9188,495.3594 Q1207.1844,494.9531 1207.6531,494.9531 Q1208.0281,494.9531 1208.2625,495.2188 Q1208.4969,495.4688 1208.4969,496.0781 L1208.4969,498.0469 Q1208.4969,498.5938 1208.3719,498.7813 Q1208.1063,499.1719 1207.6531,499.1719 Q1207.1844,499.1719 1206.9188,498.7656 Q1206.7938,498.5781 1206.7938,497.9063 L1205.3094,497.9063 Z " fill="#000000"/><text fill="#000000" font-family="sans-serif" font-size="14" lengthAdjust="spacing" textLength="50" x="1225.55" y="502.8379">projects</text><line style="stroke:#181818;stroke-width:0.5;" x1="1169.5" x2="1300.5" y1="513.1094" y2="513.1094"/><ellipse cx="1179.5" cy="527.4141" fill="#000000" rx="3" ry="3" style="stroke:#000000;stroke-width:1.0;"/><text fill="#000000" font-family="sans-serif" font-size="14" lengthAdjust="spacing" textLength="50" x="1188.5" y="531.6426">id : uuid</text><text fill="#000000" font-family="sans-serif" font-size="14" lengthAdjust="spacing" textLength="107" x="1188.5" y="549.252">project_title : text</text><text fill="#000000" font-family="sans-serif" font-size="14" lengthAdjust="spacing" textLength="72" x="1188.5" y="566.8613">status : text</text><line style="stroke:#181818;stroke-width:0.5;" x1="1169.5" x2="1300.5" y1="573.9375" y2="573.9375"/></g><!--class skills--><g id="elem_skills"><rect codeLine="75" fill="#F1F1F1" height="83.2188" id="skills" rx="2.5" ry="2.5" style="stroke:#181818;stroke-width:0.5;" width="95" x="1452.5" y="490.1094"/><ellipse cx="1482.35" cy="506.1094" fill="#ADD1B2" rx="11" ry="11" style="stroke:#181818;stroke-width:1.0;"/><path d="M1481.2094,506.9063 L1481.2094,509.4063 L1485.5375,509.4063 L1485.5375,508.4844 Q1485.5375,507.875 1485.7719,507.6094 Q1486.0219,507.3438 1486.3969,507.3438 Q1486.7719,507.3438 1487.0063,507.6094 Q1487.2406,507.875 1487.2406,508.4844 L1487.2406,511.1094 L1479.2406,511.1094 Q1478.6156,511.1094 1478.35,510.875 Q1478.1,510.6406 1478.1,510.25 Q1478.1,509.875 1478.3656,509.6406 Q1478.6313,509.4063 1479.2406,509.4063 L1479.5063,509.4063 L1479.5063,502.75 L1479.2406,502.75 Q1478.6156,502.75 1478.35,502.5156 Q1478.1,502.2813 1478.1,501.8906 Q1478.1,501.5156 1478.35,501.2813 Q1478.6156,501.0469 1479.2406,501.0469 L1486.8656,501.0469 L1486.8656,503.6406 Q1486.8656,504.25 1486.6313,504.5156 Q1486.4125,504.7656 1486.0219,504.7656 Q1485.6469,504.7656 1485.4125,504.5156 Q1485.1781,504.25 1485.1781,503.6406 L1485.1781,502.75 L1481.2094,502.75 L1481.2094,505.2031 L1482.6938,505.2031 Q1482.6938,504.5469 1482.8188,504.3594 Q1483.0844,503.9531 1483.5531,503.9531 Q1483.9281,503.9531 1484.1625,504.2188 Q1484.3969,504.4688 1484.3969,505.0781 L1484.3969,507.0469 Q1484.3969,507.5938 1484.2719,507.7813 Q1484.0063,508.1719 1483.5531,508.1719 Q1483.0844,508.1719 1482.8188,507.7656 Q1482.6938,507.5781 1482.6938,506.9063 L1481.2094,506.9063 Z " fill="#000000"/><text fill="#000000" font-family="sans-serif" font-size="14" lengthAdjust="spacing" textLength="30" x="1499.65" y="511.8379">skills</text><line style="stroke:#181818;stroke-width:0.5;" x1="1453.5" x2="1546.5" y1="522.1094" y2="522.1094"/><ellipse cx="1463.5" cy="536.4141" fill="#000000" rx="3" ry="3" style="stroke:#000000;stroke-width:1.0;"/><text fill="#000000" font-family="sans-serif" font-size="14" lengthAdjust="spacing" textLength="50" x="1472.5" y="540.6426">id : uuid</text><text fill="#000000" font-family="sans-serif" font-size="14" lengthAdjust="spacing" textLength="69" x="1472.5" y="558.252">name : text</text><line style="stroke:#181818;stroke-width:0.5;" x1="1453.5" x2="1546.5" y1="565.3281" y2="565.3281"/></g><!--class project_skills--><g id="elem_project_skills"><rect codeLine="80" fill="#F1F1F1" height="100.8281" id="project_skills" rx="2.5" ry="2.5" style="stroke:#181818;stroke-width:0.5;" width="127" x="1436.5" y="294.1094"/><ellipse cx="1457.8" cy="310.1094" fill="#ADD1B2" rx="11" ry="11" style="stroke:#181818;stroke-width:1.0;"/><path d="M1456.6594,310.9063 L1456.6594,313.4063 L1460.9875,313.4063 L1460.9875,312.4844 Q1460.9875,311.875 1461.2219,311.6094 Q1461.4719,311.3438 1461.8469,311.3438 Q1462.2219,311.3438 1462.4563,311.6094 Q1462.6906,311.875 1462.6906,312.4844 L1462.6906,315.1094 L1454.6906,315.1094 Q1454.0656,315.1094 1453.8,314.875 Q1453.55,314.6406 1453.55,314.25 Q1453.55,313.875 1453.8156,313.6406 Q1454.0813,313.4063 1454.6906,313.4063 L1454.9563,313.4063 L1454.9563,306.75 L1454.6906,306.75 Q1454.0656,306.75 1453.8,306.5156 Q1453.55,306.2813 1453.55,305.8906 Q1453.55,305.5156 1453.8,305.2813 Q1454.0656,305.0469 1454.6906,305.0469 L1462.3156,305.0469 L1462.3156,307.6406 Q1462.3156,308.25 1462.0813,308.5156 Q1461.8625,308.7656 1461.4719,308.7656 Q1461.0969,308.7656 1460.8625,308.5156 Q1460.6281,308.25 1460.6281,307.6406 L1460.6281,306.75 L1456.6594,306.75 L1456.6594,309.2031 L1458.1438,309.2031 Q1458.1438,308.5469 1458.2688,308.3594 Q1458.5344,307.9531 1459.0031,307.9531 Q1459.3781,307.9531 1459.6125,308.2188 Q1459.8469,308.4688 1459.8469,309.0781 L1459.8469,311.0469 Q1459.8469,311.5938 1459.7219,311.7813 Q1459.4563,312.1719 1459.0031,312.1719 Q1458.5344,312.1719 1458.2688,311.7656 Q1458.1438,311.5781 1458.1438,310.9063 L1456.6594,310.9063 Z " fill="#000000"/><text fill="#000000" font-family="sans-serif" font-size="14" lengthAdjust="spacing" textLength="81" x="1473.2" y="315.8379">project_skills</text><line style="stroke:#181818;stroke-width:0.5;" x1="1437.5" x2="1562.5" y1="326.1094" y2="326.1094"/><ellipse cx="1447.5" cy="340.4141" fill="#000000" rx="3" ry="3" style="stroke:#000000;stroke-width:1.0;"/><text fill="#000000" font-family="sans-serif" font-size="14" lengthAdjust="spacing" textLength="50" x="1456.5" y="344.6426">id : uuid</text><text fill="#000000" font-family="sans-serif" font-size="14" lengthAdjust="spacing" textLength="101" x="1456.5" y="362.252">project_id : uuid</text><text fill="#000000" font-family="sans-serif" font-size="14" lengthAdjust="spacing" textLength="81" x="1456.5" y="379.8613">skill_id : uuid</text><line style="stroke:#181818;stroke-width:0.5;" x1="1437.5" x2="1562.5" y1="386.9375" y2="386.9375"/></g><!--class match_requests--><g id="elem_match_requests"><rect codeLine="88" fill="#F1F1F1" height="118.4375" id="match_requests" rx="2.5" ry="2.5" style="stroke:#181818;stroke-width:0.5;" width="148" x="2035" y="285.6094"/><ellipse cx="2056.75" cy="301.6094" fill="#ADD1B2" rx="11" ry="11" style="stroke:#181818;stroke-width:1.0;"/><path d="M2055.6094,302.4063 L2055.6094,304.9063 L2059.9375,304.9063 L2059.9375,303.9844 Q2059.9375,303.375 2060.1719,303.1094 Q2060.4219,302.8438 2060.7969,302.8438 Q2061.1719,302.8438 2061.4063,303.1094 Q2061.6406,303.375 2061.6406,303.9844 L2061.6406,306.6094 L2053.6406,306.6094 Q2053.0156,306.6094 2052.75,306.375 Q2052.5,306.1406 2052.5,305.75 Q2052.5,305.375 2052.7656,305.1406 Q2053.0313,304.9063 2053.6406,304.9063 L2053.9063,304.9063 L2053.9063,298.25 L2053.6406,298.25 Q2053.0156,298.25 2052.75,298.0156 Q2052.5,297.7813 2052.5,297.3906 Q2052.5,297.0156 2052.75,296.7813 Q2053.0156,296.5469 2053.6406,296.5469 L2061.2656,296.5469 L2061.2656,299.1406 Q2061.2656,299.75 2061.0313,300.0156 Q2060.8125,300.2656 2060.4219,300.2656 Q2060.0469,300.2656 2059.8125,300.0156 Q2059.5781,299.75 2059.5781,299.1406 L2059.5781,298.25 L2055.6094,298.25 L2055.6094,300.7031 L2057.0938,300.7031 Q2057.0938,300.0469 2057.2188,299.8594 Q2057.4844,299.4531 2057.9531,299.4531 Q2058.3281,299.4531 2058.5625,299.7188 Q2058.7969,299.9688 2058.7969,300.5781 L2058.7969,302.5469 Q2058.7969,303.0938 2058.6719,303.2813 Q2058.4063,303.6719 2057.9531,303.6719 Q2057.4844,303.6719 2057.2188,303.2656 Q2057.0938,303.0781 2057.0938,302.4063 L2055.6094,302.4063 Z " fill="#000000"/><text fill="#000000" font-family="sans-serif" font-size="14" lengthAdjust="spacing" textLength="101" x="2072.25" y="307.3379">match_requests</text><line style="stroke:#181818;stroke-width:0.5;" x1="2036" x2="2182" y1="317.6094" y2="317.6094"/><ellipse cx="2046" cy="331.9141" fill="#000000" rx="3" ry="3" style="stroke:#000000;stroke-width:1.0;"/><text fill="#000000" font-family="sans-serif" font-size="14" lengthAdjust="spacing" textLength="50" x="2055" y="336.1426">id : uuid</text><text fill="#000000" font-family="sans-serif" font-size="14" lengthAdjust="spacing" textLength="122" x="2055" y="353.752">freelancer_id : uuid</text><text fill="#000000" font-family="sans-serif" font-size="14" lengthAdjust="spacing" textLength="77" x="2055" y="371.3613">job_id : uuid</text><text fill="#000000" font-family="sans-serif" font-size="14" lengthAdjust="spacing" textLength="118" x="2055" y="388.9707">reviewed_by : uuid</text><line style="stroke:#181818;stroke-width:0.5;" x1="2036" x2="2182" y1="396.0469" y2="396.0469"/></g><!--class match_results--><g id="elem_match_results"><rect codeLine="95" fill="#F1F1F1" height="171.2656" id="match_results" rx="2.5" ry="2.5" style="stroke:#181818;stroke-width:0.5;" width="187" x="2015.5" y="45.6094"/><ellipse cx="2060.75" cy="61.6094" fill="#ADD1B2" rx="11" ry="11" style="stroke:#181818;stroke-width:1.0;"/><path d="M2059.6094,62.4063 L2059.6094,64.9063 L2063.9375,64.9063 L2063.9375,63.9844 Q2063.9375,63.375 2064.1719,63.1094 Q2064.4219,62.8438 2064.7969,62.8438 Q2065.1719,62.8438 2065.4063,63.1094 Q2065.6406,63.375 2065.6406,63.9844 L2065.6406,66.6094 L2057.6406,66.6094 Q2057.0156,66.6094 2056.75,66.375 Q2056.5,66.1406 2056.5,65.75 Q2056.5,65.375 2056.7656,65.1406 Q2057.0313,64.9063 2057.6406,64.9063 L2057.9063,64.9063 L2057.9063,58.25 L2057.6406,58.25 Q2057.0156,58.25 2056.75,58.0156 Q2056.5,57.7813 2056.5,57.3906 Q2056.5,57.0156 2056.75,56.7813 Q2057.0156,56.5469 2057.6406,56.5469 L2065.2656,56.5469 L2065.2656,59.1406 Q2065.2656,59.75 2065.0313,60.0156 Q2064.8125,60.2656 2064.4219,60.2656 Q2064.0469,60.2656 2063.8125,60.0156 Q2063.5781,59.75 2063.5781,59.1406 L2063.5781,58.25 L2059.6094,58.25 L2059.6094,60.7031 L2061.0938,60.7031 Q2061.0938,60.0469 2061.2188,59.8594 Q2061.4844,59.4531 2061.9531,59.4531 Q2062.3281,59.4531 2062.5625,59.7188 Q2062.7969,59.9688 2062.7969,60.5781 L2062.7969,62.5469 Q2062.7969,63.0938 2062.6719,63.2813 Q2062.4063,63.6719 2061.9531,63.6719 Q2061.4844,63.6719 2061.2188,63.2656 Q2061.0938,63.0781 2061.0938,62.4063 L2059.6094,62.4063 Z " fill="#000000"/><text fill="#000000" font-family="sans-serif" font-size="14" lengthAdjust="spacing" textLength="88" x="2081.25" y="67.3379">match_results</text><line style="stroke:#181818;stroke-width:0.5;" x1="2016.5" x2="2201.5" y1="77.6094" y2="77.6094"/><ellipse cx="2026.5" cy="91.9141" fill="#000000" rx="3" ry="3" style="stroke:#000000;stroke-width:1.0;"/><text fill="#000000" font-family="sans-serif" font-size="14" lengthAdjust="spacing" textLength="50" x="2035.5" y="96.1426">id : uuid</text><text fill="#000000" font-family="sans-serif" font-size="14" lengthAdjust="spacing" textLength="152" x="2035.5" y="113.752">match_request_id : uuid</text><text fill="#000000" font-family="sans-serif" font-size="14" lengthAdjust="spacing" textLength="112" x="2035.5" y="131.3613">overall_score : int</text><text fill="#000000" font-family="sans-serif" font-size="14" lengthAdjust="spacing" textLength="161" x="2035.5" y="148.9707">semantic_score : numeric</text><text fill="#000000" font-family="sans-serif" font-size="14" lengthAdjust="spacing" textLength="143" x="2035.5" y="166.5801">match_reasons : jsonb</text><text fill="#000000" font-family="sans-serif" font-size="14" lengthAdjust="spacing" textLength="108" x="2035.5" y="184.1895">skill_gaps : jsonb</text><text fill="#000000" font-family="sans-serif" font-size="14" lengthAdjust="spacing" textLength="158" x="2035.5" y="201.7988">embedding_version : text</text><line style="stroke:#181818;stroke-width:0.5;" x1="2016.5" x2="2201.5" y1="208.875" y2="208.875"/></g><!--class job_embeddings--><g id="elem_job_embeddings"><rect codeLine="105" fill="#F1F1F1" height="100.8281" id="job_embeddings" rx="2.5" ry="2.5" style="stroke:#181818;stroke-width:0.5;" width="175" x="2401.5" y="294.1094"/><ellipse cx="2434.05" cy="310.1094" fill="#ADD1B2" rx="11" ry="11" style="stroke:#181818;stroke-width:1.0;"/><path d="M2432.9094,310.9063 L2432.9094,313.4063 L2437.2375,313.4063 L2437.2375,312.4844 Q2437.2375,311.875 2437.4719,311.6094 Q2437.7219,311.3438 2438.0969,311.3438 Q2438.4719,311.3438 2438.7063,311.6094 Q2438.9406,311.875 2438.9406,312.4844 L2438.9406,315.1094 L2430.9406,315.1094 Q2430.3156,315.1094 2430.05,314.875 Q2429.8,314.6406 2429.8,314.25 Q2429.8,313.875 2430.0656,313.6406 Q2430.3313,313.4063 2430.9406,313.4063 L2431.2063,313.4063 L2431.2063,306.75 L2430.9406,306.75 Q2430.3156,306.75 2430.05,306.5156 Q2429.8,306.2813 2429.8,305.8906 Q2429.8,305.5156 2430.05,305.2813 Q2430.3156,305.0469 2430.9406,305.0469 L2438.5656,305.0469 L2438.5656,307.6406 Q2438.5656,308.25 2438.3313,308.5156 Q2438.1125,308.7656 2437.7219,308.7656 Q2437.3469,308.7656 2437.1125,308.5156 Q2436.8781,308.25 2436.8781,307.6406 L2436.8781,306.75 L2432.9094,306.75 L2432.9094,309.2031 L2434.3938,309.2031 Q2434.3938,308.5469 2434.5188,308.3594 Q2434.7844,307.9531 2435.2531,307.9531 Q2435.6281,307.9531 2435.8625,308.2188 Q2436.0969,308.4688 2436.0969,309.0781 L2436.0969,311.0469 Q2436.0969,311.5938 2435.9719,311.7813 Q2435.7063,312.1719 2435.2531,312.1719 Q2434.7844,312.1719 2434.5188,311.7656 Q2434.3938,311.5781 2434.3938,310.9063 L2432.9094,310.9063 Z " fill="#000000"/><text fill="#000000" font-family="sans-serif" font-size="14" lengthAdjust="spacing" textLength="104" x="2451.95" y="315.8379">job_embeddings</text><line style="stroke:#181818;stroke-width:0.5;" x1="2402.5" x2="2575.5" y1="326.1094" y2="326.1094"/><ellipse cx="2412.5" cy="340.4141" fill="#000000" rx="3" ry="3" style="stroke:#000000;stroke-width:1.0;"/><text fill="#000000" font-family="sans-serif" font-size="14" lengthAdjust="spacing" textLength="50" x="2421.5" y="344.6426">id : uuid</text><text fill="#000000" font-family="sans-serif" font-size="14" lengthAdjust="spacing" textLength="77" x="2421.5" y="362.252">job_id : uuid</text><line style="stroke:#181818;stroke-width:0.5;" x1="2402.5" x2="2575.5" y1="369.3281" y2="369.3281"/><text fill="#000000" font-family="sans-serif" font-size="14" lengthAdjust="spacing" textLength="163" x="2407.5" y="387.8613">embedding : vector(1536)</text></g><!--class freelancer_embeddings--><g id="elem_freelancer_embeddings"><rect codeLine="111" fill="#F1F1F1" height="100.8281" id="freelancer_embeddings" rx="2.5" ry="2.5" style="stroke:#181818;stroke-width:0.5;" width="181" x="1818.5" y="294.1094"/><ellipse cx="1833.5" cy="310.1094" fill="#ADD1B2" rx="11" ry="11" style="stroke:#181818;stroke-width:1.0;"/><path d="M1832.3594,310.9063 L1832.3594,313.4063 L1836.6875,313.4063 L1836.6875,312.4844 Q1836.6875,311.875 1836.9219,311.6094 Q1837.1719,311.3438 1837.5469,311.3438 Q1837.9219,311.3438 1838.1563,311.6094 Q1838.3906,311.875 1838.3906,312.4844 L1838.3906,315.1094 L1830.3906,315.1094 Q1829.7656,315.1094 1829.5,314.875 Q1829.25,314.6406 1829.25,314.25 Q1829.25,313.875 1829.5156,313.6406 Q1829.7813,313.4063 1830.3906,313.4063 L1830.6563,313.4063 L1830.6563,306.75 L1830.3906,306.75 Q1829.7656,306.75 1829.5,306.5156 Q1829.25,306.2813 1829.25,305.8906 Q1829.25,305.5156 1829.5,305.2813 Q1829.7656,305.0469 1830.3906,305.0469 L1838.0156,305.0469 L1838.0156,307.6406 Q1838.0156,308.25 1837.7813,308.5156 Q1837.5625,308.7656 1837.1719,308.7656 Q1836.7969,308.7656 1836.5625,308.5156 Q1836.3281,308.25 1836.3281,307.6406 L1836.3281,306.75 L1832.3594,306.75 L1832.3594,309.2031 L1833.8438,309.2031 Q1833.8438,308.5469 1833.9688,308.3594 Q1834.2344,307.9531 1834.7031,307.9531 Q1835.0781,307.9531 1835.3125,308.2188 Q1835.5469,308.4688 1835.5469,309.0781 L1835.5469,311.0469 Q1835.5469,311.5938 1835.4219,311.7813 Q1835.1563,312.1719 1834.7031,312.1719 Q1834.2344,312.1719 1833.9688,311.7656 Q1833.8438,311.5781 1833.8438,310.9063 L1832.3594,310.9063 Z " fill="#000000"/><text fill="#000000" font-family="sans-serif" font-size="14" lengthAdjust="spacing" textLength="149" x="1847.5" y="315.8379">freelancer_embeddings</text><line style="stroke:#181818;stroke-width:0.5;" x1="1819.5" x2="1998.5" y1="326.1094" y2="326.1094"/><ellipse cx="1829.5" cy="340.4141" fill="#000000" rx="3" ry="3" style="stroke:#000000;stroke-width:1.0;"/><text fill="#000000" font-family="sans-serif" font-size="14" lengthAdjust="spacing" textLength="50" x="1838.5" y="344.6426">id : uuid</text><text fill="#000000" font-family="sans-serif" font-size="14" lengthAdjust="spacing" textLength="122" x="1838.5" y="362.252">freelancer_id : uuid</text><line style="stroke:#181818;stroke-width:0.5;" x1="1819.5" x2="1998.5" y1="369.3281" y2="369.3281"/><text fill="#000000" font-family="sans-serif" font-size="14" lengthAdjust="spacing" textLength="163" x="1824.5" y="387.8613">embedding : vector(1536)</text></g><!--class bids--><g id="elem_bids"><rect codeLine="119" fill="#F1F1F1" height="118.4375" id="bids" rx="2.5" ry="2.5" style="stroke:#181818;stroke-width:0.5;" width="148" x="2218" y="285.6094"/><ellipse cx="2274.75" cy="301.6094" fill="#ADD1B2" rx="11" ry="11" style="stroke:#181818;stroke-width:1.0;"/><path d="M2273.6094,302.4063 L2273.6094,304.9063 L2277.9375,304.9063 L2277.9375,303.9844 Q2277.9375,303.375 2278.1719,303.1094 Q2278.4219,302.8438 2278.7969,302.8438 Q2279.1719,302.8438 2279.4063,303.1094 Q2279.6406,303.375 2279.6406,303.9844 L2279.6406,306.6094 L2271.6406,306.6094 Q2271.0156,306.6094 2270.75,306.375 Q2270.5,306.1406 2270.5,305.75 Q2270.5,305.375 2270.7656,305.1406 Q2271.0313,304.9063 2271.6406,304.9063 L2271.9063,304.9063 L2271.9063,298.25 L2271.6406,298.25 Q2271.0156,298.25 2270.75,298.0156 Q2270.5,297.7813 2270.5,297.3906 Q2270.5,297.0156 2270.75,296.7813 Q2271.0156,296.5469 2271.6406,296.5469 L2279.2656,296.5469 L2279.2656,299.1406 Q2279.2656,299.75 2279.0313,300.0156 Q2278.8125,300.2656 2278.4219,300.2656 Q2278.0469,300.2656 2277.8125,300.0156 Q2277.5781,299.75 2277.5781,299.1406 L2277.5781,298.25 L2273.6094,298.25 L2273.6094,300.7031 L2275.0938,300.7031 Q2275.0938,300.0469 2275.2188,299.8594 Q2275.4844,299.4531 2275.9531,299.4531 Q2276.3281,299.4531 2276.5625,299.7188 Q2276.7969,299.9688 2276.7969,300.5781 L2276.7969,302.5469 Q2276.7969,303.0938 2276.6719,303.2813 Q2276.4063,303.6719 2275.9531,303.6719 Q2275.4844,303.6719 2275.2188,303.2656 Q2275.0938,303.0781 2275.0938,302.4063 L2273.6094,302.4063 Z " fill="#000000"/><text fill="#000000" font-family="sans-serif" font-size="14" lengthAdjust="spacing" textLength="26" x="2295.25" y="307.3379">bids</text><line style="stroke:#181818;stroke-width:0.5;" x1="2219" x2="2365" y1="317.6094" y2="317.6094"/><ellipse cx="2229" cy="331.9141" fill="#000000" rx="3" ry="3" style="stroke:#000000;stroke-width:1.0;"/><text fill="#000000" font-family="sans-serif" font-size="14" lengthAdjust="spacing" textLength="50" x="2238" y="336.1426">id : uuid</text><text fill="#000000" font-family="sans-serif" font-size="14" lengthAdjust="spacing" textLength="77" x="2238" y="353.752">job_id : uuid</text><text fill="#000000" font-family="sans-serif" font-size="14" lengthAdjust="spacing" textLength="122" x="2238" y="371.3613">freelancer_id : uuid</text><text fill="#000000" font-family="sans-serif" font-size="14" lengthAdjust="spacing" textLength="72" x="2238" y="388.9707">status : text</text><line style="stroke:#181818;stroke-width:0.5;" x1="2219" x2="2365" y1="396.0469" y2="396.0469"/></g><!--class project_bids--><g id="elem_project_bids"><rect codeLine="126" fill="#F1F1F1" height="136.0469" id="project_bids" rx="2.5" ry="2.5" style="stroke:#181818;stroke-width:0.5;" width="148" x="1070" y="276.6094"/><ellipse cx="1102.55" cy="292.6094" fill="#ADD1B2" rx="11" ry="11" style="stroke:#181818;stroke-width:1.0;"/><path d="M1101.4094,293.4063 L1101.4094,295.9063 L1105.7375,295.9063 L1105.7375,294.9844 Q1105.7375,294.375 1105.9719,294.1094 Q1106.2219,293.8438 1106.5969,293.8438 Q1106.9719,293.8438 1107.2063,294.1094 Q1107.4406,294.375 1107.4406,294.9844 L1107.4406,297.6094 L1099.4406,297.6094 Q1098.8156,297.6094 1098.55,297.375 Q1098.3,297.1406 1098.3,296.75 Q1098.3,296.375 1098.5656,296.1406 Q1098.8313,295.9063 1099.4406,295.9063 L1099.7063,295.9063 L1099.7063,289.25 L1099.4406,289.25 Q1098.8156,289.25 1098.55,289.0156 Q1098.3,288.7813 1098.3,288.3906 Q1098.3,288.0156 1098.55,287.7813 Q1098.8156,287.5469 1099.4406,287.5469 L1107.0656,287.5469 L1107.0656,290.1406 Q1107.0656,290.75 1106.8313,291.0156 Q1106.6125,291.2656 1106.2219,291.2656 Q1105.8469,291.2656 1105.6125,291.0156 Q1105.3781,290.75 1105.3781,290.1406 L1105.3781,289.25 L1101.4094,289.25 L1101.4094,291.7031 L1102.8938,291.7031 Q1102.8938,291.0469 1103.0188,290.8594 Q1103.2844,290.4531 1103.7531,290.4531 Q1104.1281,290.4531 1104.3625,290.7188 Q1104.5969,290.9688 1104.5969,291.5781 L1104.5969,293.5469 Q1104.5969,294.0938 1104.4719,294.2813 Q1104.2063,294.6719 1103.7531,294.6719 Q1103.2844,294.6719 1103.0188,294.2656 Q1102.8938,294.0781 1102.8938,293.4063 L1101.4094,293.4063 Z " fill="#000000"/><text fill="#000000" font-family="sans-serif" font-size="14" lengthAdjust="spacing" textLength="77" x="1120.45" y="298.3379">project_bids</text><line style="stroke:#181818;stroke-width:0.5;" x1="1071" x2="1217" y1="308.6094" y2="308.6094"/><ellipse cx="1081" cy="322.9141" fill="#000000" rx="3" ry="3" style="stroke:#000000;stroke-width:1.0;"/><text fill="#000000" font-family="sans-serif" font-size="14" lengthAdjust="spacing" textLength="50" x="1090" y="327.1426">id : uuid</text><text fill="#000000" font-family="sans-serif" font-size="14" lengthAdjust="spacing" textLength="101" x="1090" y="344.752">project_id : uuid</text><text fill="#000000" font-family="sans-serif" font-size="14" lengthAdjust="spacing" textLength="122" x="1090" y="362.3613">freelancer_id : uuid</text><text fill="#000000" font-family="sans-serif" font-size="14" lengthAdjust="spacing" textLength="115" x="1090" y="379.9707">status : bid_status</text><text fill="#000000" font-family="sans-serif" font-size="14" lengthAdjust="spacing" textLength="118" x="1090" y="397.5801">reviewed_by : uuid</text><line style="stroke:#181818;stroke-width:0.5;" x1="1071" x2="1217" y1="404.6563" y2="404.6563"/></g><!--class contracts--><g id="elem_contracts"><rect codeLine="136" fill="#F1F1F1" height="136.0469" id="contracts" rx="2.5" ry="2.5" style="stroke:#181818;stroke-width:0.5;" width="148" x="1253" y="276.6094"/><ellipse cx="1294.1" cy="292.6094" fill="#ADD1B2" rx="11" ry="11" style="stroke:#181818;stroke-width:1.0;"/><path d="M1292.9594,293.4063 L1292.9594,295.9063 L1297.2875,295.9063 L1297.2875,294.9844 Q1297.2875,294.375 1297.5219,294.1094 Q1297.7719,293.8438 1298.1469,293.8438 Q1298.5219,293.8438 1298.7563,294.1094 Q1298.9906,294.375 1298.9906,294.9844 L1298.9906,297.6094 L1290.9906,297.6094 Q1290.3656,297.6094 1290.1,297.375 Q1289.85,297.1406 1289.85,296.75 Q1289.85,296.375 1290.1156,296.1406 Q1290.3813,295.9063 1290.9906,295.9063 L1291.2563,295.9063 L1291.2563,289.25 L1290.9906,289.25 Q1290.3656,289.25 1290.1,289.0156 Q1289.85,288.7813 1289.85,288.3906 Q1289.85,288.0156 1290.1,287.7813 Q1290.3656,287.5469 1290.9906,287.5469 L1298.6156,287.5469 L1298.6156,290.1406 Q1298.6156,290.75 1298.3813,291.0156 Q1298.1625,291.2656 1297.7719,291.2656 Q1297.3969,291.2656 1297.1625,291.0156 Q1296.9281,290.75 1296.9281,290.1406 L1296.9281,289.25 L1292.9594,289.25 L1292.9594,291.7031 L1294.4438,291.7031 Q1294.4438,291.0469 1294.5688,290.8594 Q1294.8344,290.4531 1295.3031,290.4531 Q1295.6781,290.4531 1295.9125,290.7188 Q1296.1469,290.9688 1296.1469,291.5781 L1296.1469,293.5469 Q1296.1469,294.0938 1296.0219,294.2813 Q1295.7563,294.6719 1295.3031,294.6719 Q1294.8344,294.6719 1294.5688,294.2656 Q1294.4438,294.0781 1294.4438,293.4063 L1292.9594,293.4063 Z " fill="#000000"/><text fill="#000000" font-family="sans-serif" font-size="14" lengthAdjust="spacing" textLength="58" x="1313.9" y="298.3379">contracts</text><line style="stroke:#181818;stroke-width:0.5;" x1="1254" x2="1400" y1="308.6094" y2="308.6094"/><ellipse cx="1264" cy="322.9141" fill="#000000" rx="3" ry="3" style="stroke:#000000;stroke-width:1.0;"/><text fill="#000000" font-family="sans-serif" font-size="14" lengthAdjust="spacing" textLength="50" x="1273" y="327.1426">id : uuid</text><text fill="#000000" font-family="sans-serif" font-size="14" lengthAdjust="spacing" textLength="101" x="1273" y="344.752">project_id : uuid</text><text fill="#000000" font-family="sans-serif" font-size="14" lengthAdjust="spacing" textLength="122" x="1273" y="362.3613">freelancer_id : uuid</text><text fill="#000000" font-family="sans-serif" font-size="14" lengthAdjust="spacing" textLength="91" x="1273" y="379.9707">client_id : uuid</text><text fill="#000000" font-family="sans-serif" font-size="14" lengthAdjust="spacing" textLength="72" x="1273" y="397.5801">status : text</text><line style="stroke:#181818;stroke-width:0.5;" x1="1254" x2="1400" y1="404.6563" y2="404.6563"/></g><!--class contract_versions--><g id="elem_contract_versions"><rect codeLine="144" fill="#F1F1F1" height="100.8281" id="contract_versions" rx="2.5" ry="2.5" style="stroke:#181818;stroke-width:0.5;" width="144" x="705" y="80.6094"/><ellipse cx="720" cy="96.6094" fill="#ADD1B2" rx="11" ry="11" style="stroke:#181818;stroke-width:1.0;"/><path d="M718.8594,97.4063 L718.8594,99.9063 L723.1875,99.9063 L723.1875,98.9844 Q723.1875,98.375 723.4219,98.1094 Q723.6719,97.8438 724.0469,97.8438 Q724.4219,97.8438 724.6563,98.1094 Q724.8906,98.375 724.8906,98.9844 L724.8906,101.6094 L716.8906,101.6094 Q716.2656,101.6094 716,101.375 Q715.75,101.1406 715.75,100.75 Q715.75,100.375 716.0156,100.1406 Q716.2813,99.9063 716.8906,99.9063 L717.1563,99.9063 L717.1563,93.25 L716.8906,93.25 Q716.2656,93.25 716,93.0156 Q715.75,92.7813 715.75,92.3906 Q715.75,92.0156 716,91.7813 Q716.2656,91.5469 716.8906,91.5469 L724.5156,91.5469 L724.5156,94.1406 Q724.5156,94.75 724.2813,95.0156 Q724.0625,95.2656 723.6719,95.2656 Q723.2969,95.2656 723.0625,95.0156 Q722.8281,94.75 722.8281,94.1406 L722.8281,93.25 L718.8594,93.25 L718.8594,95.7031 L720.3438,95.7031 Q720.3438,95.0469 720.4688,94.8594 Q720.7344,94.4531 721.2031,94.4531 Q721.5781,94.4531 721.8125,94.7188 Q722.0469,94.9688 722.0469,95.5781 L722.0469,97.5469 Q722.0469,98.0938 721.9219,98.2813 Q721.6563,98.6719 721.2031,98.6719 Q720.7344,98.6719 720.4688,98.2656 Q720.3438,98.0781 720.3438,97.4063 L718.8594,97.4063 Z " fill="#000000"/><text fill="#000000" font-family="sans-serif" font-size="14" lengthAdjust="spacing" textLength="112" x="734" y="102.3379">contract_versions</text><line style="stroke:#181818;stroke-width:0.5;" x1="706" x2="848" y1="112.6094" y2="112.6094"/><ellipse cx="716" cy="126.9141" fill="#000000" rx="3" ry="3" style="stroke:#000000;stroke-width:1.0;"/><text fill="#000000" font-family="sans-serif" font-size="14" lengthAdjust="spacing" textLength="50" x="725" y="131.1426">id : uuid</text><text fill="#000000" font-family="sans-serif" font-size="14" lengthAdjust="spacing" textLength="109" x="725" y="148.752">contract_id : uuid</text><text fill="#000000" font-family="sans-serif" font-size="14" lengthAdjust="spacing" textLength="110" x="725" y="166.3613">created_by : uuid</text><line style="stroke:#181818;stroke-width:0.5;" x1="706" x2="848" y1="173.4375" y2="173.4375"/></g><!--class contract_signatures--><g id="elem_contract_signatures"><rect codeLine="150" fill="#F1F1F1" height="100.8281" id="contract_signatures" rx="2.5" ry="2.5" style="stroke:#181818;stroke-width:0.5;" width="157" x="1001.5" y="80.6094"/><ellipse cx="1016.5" cy="96.6094" fill="#ADD1B2" rx="11" ry="11" style="stroke:#181818;stroke-width:1.0;"/><path d="M1015.3594,97.4063 L1015.3594,99.9063 L1019.6875,99.9063 L1019.6875,98.9844 Q1019.6875,98.375 1019.9219,98.1094 Q1020.1719,97.8438 1020.5469,97.8438 Q1020.9219,97.8438 1021.1563,98.1094 Q1021.3906,98.375 1021.3906,98.9844 L1021.3906,101.6094 L1013.3906,101.6094 Q1012.7656,101.6094 1012.5,101.375 Q1012.25,101.1406 1012.25,100.75 Q1012.25,100.375 1012.5156,100.1406 Q1012.7813,99.9063 1013.3906,99.9063 L1013.6563,99.9063 L1013.6563,93.25 L1013.3906,93.25 Q1012.7656,93.25 1012.5,93.0156 Q1012.25,92.7813 1012.25,92.3906 Q1012.25,92.0156 1012.5,91.7813 Q1012.7656,91.5469 1013.3906,91.5469 L1021.0156,91.5469 L1021.0156,94.1406 Q1021.0156,94.75 1020.7813,95.0156 Q1020.5625,95.2656 1020.1719,95.2656 Q1019.7969,95.2656 1019.5625,95.0156 Q1019.3281,94.75 1019.3281,94.1406 L1019.3281,93.25 L1015.3594,93.25 L1015.3594,95.7031 L1016.8438,95.7031 Q1016.8438,95.0469 1016.9688,94.8594 Q1017.2344,94.4531 1017.7031,94.4531 Q1018.0781,94.4531 1018.3125,94.7188 Q1018.5469,94.9688 1018.5469,95.5781 L1018.5469,97.5469 Q1018.5469,98.0938 1018.4219,98.2813 Q1018.1563,98.6719 1017.7031,98.6719 Q1017.2344,98.6719 1016.9688,98.2656 Q1016.8438,98.0781 1016.8438,97.4063 L1015.3594,97.4063 Z " fill="#000000"/><text fill="#000000" font-family="sans-serif" font-size="14" lengthAdjust="spacing" textLength="125" x="1030.5" y="102.3379">contract_signatures</text><line style="stroke:#181818;stroke-width:0.5;" x1="1002.5" x2="1157.5" y1="112.6094" y2="112.6094"/><ellipse cx="1012.5" cy="126.9141" fill="#000000" rx="3" ry="3" style="stroke:#000000;stroke-width:1.0;"/><text fill="#000000" font-family="sans-serif" font-size="14" lengthAdjust="spacing" textLength="50" x="1021.5" y="131.1426">id : uuid</text><text fill="#000000" font-family="sans-serif" font-size="14" lengthAdjust="spacing" textLength="109" x="1021.5" y="148.752">contract_id : uuid</text><text fill="#000000" font-family="sans-serif" font-size="14" lengthAdjust="spacing" textLength="97" x="1021.5" y="166.3613">signer_id : uuid</text><line style="stroke:#181818;stroke-width:0.5;" x1="1002.5" x2="1157.5" y1="173.4375" y2="173.4375"/></g><!--class time_entries--><g id="elem_time_entries"><rect codeLine="158" fill="#F1F1F1" height="136.0469" id="time_entries" rx="2.5" ry="2.5" style="stroke:#181818;stroke-width:0.5;" width="148" x="887" y="276.6094"/><ellipse cx="919.55" cy="292.6094" fill="#ADD1B2" rx="11" ry="11" style="stroke:#181818;stroke-width:1.0;"/><path d="M918.4094,293.4063 L918.4094,295.9063 L922.7375,295.9063 L922.7375,294.9844 Q922.7375,294.375 922.9719,294.1094 Q923.2219,293.8438 923.5969,293.8438 Q923.9719,293.8438 924.2063,294.1094 Q924.4406,294.375 924.4406,294.9844 L924.4406,297.6094 L916.4406,297.6094 Q915.8156,297.6094 915.55,297.375 Q915.3,297.1406 915.3,296.75 Q915.3,296.375 915.5656,296.1406 Q915.8313,295.9063 916.4406,295.9063 L916.7063,295.9063 L916.7063,289.25 L916.4406,289.25 Q915.8156,289.25 915.55,289.0156 Q915.3,288.7813 915.3,288.3906 Q915.3,288.0156 915.55,287.7813 Q915.8156,287.5469 916.4406,287.5469 L924.0656,287.5469 L924.0656,290.1406 Q924.0656,290.75 923.8313,291.0156 Q923.6125,291.2656 923.2219,291.2656 Q922.8469,291.2656 922.6125,291.0156 Q922.3781,290.75 922.3781,290.1406 L922.3781,289.25 L918.4094,289.25 L918.4094,291.7031 L919.8938,291.7031 Q919.8938,291.0469 920.0188,290.8594 Q920.2844,290.4531 920.7531,290.4531 Q921.1281,290.4531 921.3625,290.7188 Q921.5969,290.9688 921.5969,291.5781 L921.5969,293.5469 Q921.5969,294.0938 921.4719,294.2813 Q921.2063,294.6719 920.7531,294.6719 Q920.2844,294.6719 920.0188,294.2656 Q919.8938,294.0781 919.8938,293.4063 L918.4094,293.4063 Z " fill="#000000"/><text fill="#000000" font-family="sans-serif" font-size="14" lengthAdjust="spacing" textLength="77" x="937.45" y="298.3379">time_entries</text><line style="stroke:#181818;stroke-width:0.5;" x1="888" x2="1034" y1="308.6094" y2="308.6094"/><ellipse cx="898" cy="322.9141" fill="#000000" rx="3" ry="3" style="stroke:#000000;stroke-width:1.0;"/><text fill="#000000" font-family="sans-serif" font-size="14" lengthAdjust="spacing" textLength="50" x="907" y="327.1426">id : uuid</text><text fill="#000000" font-family="sans-serif" font-size="14" lengthAdjust="spacing" textLength="122" x="907" y="344.752">freelancer_id : uuid</text><text fill="#000000" font-family="sans-serif" font-size="14" lengthAdjust="spacing" textLength="101" x="907" y="362.3613">project_id : uuid</text><text fill="#000000" font-family="sans-serif" font-size="14" lengthAdjust="spacing" textLength="98" x="907" y="379.9707">hours : numeric</text><text fill="#000000" font-family="sans-serif" font-size="14" lengthAdjust="spacing" textLength="72" x="907" y="397.5801">status : text</text><line style="stroke:#181818;stroke-width:0.5;" x1="888" x2="1034" y1="404.6563" y2="404.6563"/></g><!--class economic_sync_log--><g id="elem_economic_sync_log"><rect codeLine="166" fill="#F1F1F1" height="136.0469" id="economic_sync_log" rx="2.5" ry="2.5" style="stroke:#181818;stroke-width:0.5;" width="200" x="7" y="276.6094"/><ellipse cx="41.8" cy="292.6094" fill="#ADD1B2" rx="11" ry="11" style="stroke:#181818;stroke-width:1.0;"/><path d="M40.6594,293.4063 L40.6594,295.9063 L44.9875,295.9063 L44.9875,294.9844 Q44.9875,294.375 45.2219,294.1094 Q45.4719,293.8438 45.8469,293.8438 Q46.2219,293.8438 46.4563,294.1094 Q46.6906,294.375 46.6906,294.9844 L46.6906,297.6094 L38.6906,297.6094 Q38.0656,297.6094 37.8,297.375 Q37.55,297.1406 37.55,296.75 Q37.55,296.375 37.8156,296.1406 Q38.0813,295.9063 38.6906,295.9063 L38.9563,295.9063 L38.9563,289.25 L38.6906,289.25 Q38.0656,289.25 37.8,289.0156 Q37.55,288.7813 37.55,288.3906 Q37.55,288.0156 37.8,287.7813 Q38.0656,287.5469 38.6906,287.5469 L46.3156,287.5469 L46.3156,290.1406 Q46.3156,290.75 46.0813,291.0156 Q45.8625,291.2656 45.4719,291.2656 Q45.0969,291.2656 44.8625,291.0156 Q44.6281,290.75 44.6281,290.1406 L44.6281,289.25 L40.6594,289.25 L40.6594,291.7031 L42.1438,291.7031 Q42.1438,291.0469 42.2688,290.8594 Q42.5344,290.4531 43.0031,290.4531 Q43.3781,290.4531 43.6125,290.7188 Q43.8469,290.9688 43.8469,291.5781 L43.8469,293.5469 Q43.8469,294.0938 43.7219,294.2813 Q43.4563,294.6719 43.0031,294.6719 Q42.5344,294.6719 42.2688,294.2656 Q42.1438,294.0781 42.1438,293.4063 L40.6594,293.4063 Z " fill="#000000"/><text fill="#000000" font-family="sans-serif" font-size="14" lengthAdjust="spacing" textLength="124" x="60.2" y="298.3379">economic_sync_log</text><line style="stroke:#181818;stroke-width:0.5;" x1="8" x2="206" y1="308.6094" y2="308.6094"/><ellipse cx="18" cy="322.9141" fill="#000000" rx="3" ry="3" style="stroke:#000000;stroke-width:1.0;"/><text fill="#000000" font-family="sans-serif" font-size="14" lengthAdjust="spacing" textLength="50" x="27" y="327.1426">id : uuid</text><text fill="#000000" font-family="sans-serif" font-size="14" lengthAdjust="spacing" textLength="98" x="27" y="344.752">sync_type : text</text><text fill="#000000" font-family="sans-serif" font-size="14" lengthAdjust="spacing" textLength="92" x="27" y="362.3613">entity_id : uuid</text><text fill="#000000" font-family="sans-serif" font-size="14" lengthAdjust="spacing" textLength="72" x="27" y="379.9707">status : text</text><text fill="#000000" font-family="sans-serif" font-size="14" lengthAdjust="spacing" textLength="174" x="27" y="397.5801">triggered_by_user_id : uuid</text><line style="stroke:#181818;stroke-width:0.5;" x1="8" x2="206" y1="404.6563" y2="404.6563"/></g><!--class platform_ecom--><g id="elem_platform_ecom"><rect codeLine="174" fill="#F1F1F1" height="100.8281" id="platform_ecom" rx="2.5" ry="2.5" style="stroke:#181818;stroke-width:0.5;" width="220" x="2238" y="80.6094"/><ellipse cx="2262" cy="96.6094" fill="#ADD1B2" rx="11" ry="11" style="stroke:#181818;stroke-width:1.0;"/><path d="M2260.8594,97.4063 L2260.8594,99.9063 L2265.1875,99.9063 L2265.1875,98.9844 Q2265.1875,98.375 2265.4219,98.1094 Q2265.6719,97.8438 2266.0469,97.8438 Q2266.4219,97.8438 2266.6563,98.1094 Q2266.8906,98.375 2266.8906,98.9844 L2266.8906,101.6094 L2258.8906,101.6094 Q2258.2656,101.6094 2258,101.375 Q2257.75,101.1406 2257.75,100.75 Q2257.75,100.375 2258.0156,100.1406 Q2258.2813,99.9063 2258.8906,99.9063 L2259.1563,99.9063 L2259.1563,93.25 L2258.8906,93.25 Q2258.2656,93.25 2258,93.0156 Q2257.75,92.7813 2257.75,92.3906 Q2257.75,92.0156 2258,91.7813 Q2258.2656,91.5469 2258.8906,91.5469 L2266.5156,91.5469 L2266.5156,94.1406 Q2266.5156,94.75 2266.2813,95.0156 Q2266.0625,95.2656 2265.6719,95.2656 Q2265.2969,95.2656 2265.0625,95.0156 Q2264.8281,94.75 2264.8281,94.1406 L2264.8281,93.25 L2260.8594,93.25 L2260.8594,95.7031 L2262.3438,95.7031 Q2262.3438,95.0469 2262.4688,94.8594 Q2262.7344,94.4531 2263.2031,94.4531 Q2263.5781,94.4531 2263.8125,94.7188 Q2264.0469,94.9688 2264.0469,95.5781 L2264.0469,97.5469 Q2264.0469,98.0938 2263.9219,98.2813 Q2263.6563,98.6719 2263.2031,98.6719 Q2262.7344,98.6719 2262.4688,98.2656 Q2262.3438,98.0781 2262.3438,97.4063 L2260.8594,97.4063 Z " fill="#000000"/><text fill="#000000" font-family="sans-serif" font-size="14" lengthAdjust="spacing" textLength="168" x="2278" y="102.3379">platform_ecom_integration</text><line style="stroke:#181818;stroke-width:0.5;" x1="2239" x2="2457" y1="112.6094" y2="112.6094"/><ellipse cx="2249" cy="126.9141" fill="#000000" rx="3" ry="3" style="stroke:#000000;stroke-width:1.0;"/><text fill="#000000" font-family="sans-serif" font-size="14" lengthAdjust="spacing" textLength="38" x="2258" y="131.1426">id : int</text><text fill="#000000" font-family="sans-serif" font-size="14" lengthAdjust="spacing" textLength="118" x="2258" y="148.752">is_active : boolean</text><text fill="#000000" font-family="sans-serif" font-size="14" lengthAdjust="spacing" textLength="194" x="2258" y="166.3613">token_expires_at : timestamptz</text><line style="stroke:#181818;stroke-width:0.5;" x1="2239" x2="2457" y1="173.4375" y2="173.4375"/></g><!--link profiles to auth_users--><g id="link_profiles_auth_users"><path codeLine="186" d="M378.05,399.6094 C498.29,399.6094 742.25,399.6094 742.25,399.6094 C742.25,399.6094 742.25,446.4494 742.25,485.4294 " fill="none" id="profiles-auth_users" style="stroke:#181818;stroke-width:1.0;"/><line style="stroke:#181818;stroke-width:1.0;" x1="368.05" x2="360.05" y1="399.6094" y2="405.6094"/><line style="stroke:#181818;stroke-width:1.0;" x1="368.05" x2="360.05" y1="399.6094" y2="393.6094"/><line style="stroke:#181818;stroke-width:1.0;" x1="368.05" x2="360.05" y1="399.6094" y2="399.6094"/><ellipse cx="374.05" cy="399.6094" fill="none" rx="4" ry="4" style="stroke:#181818;stroke-width:1.0;"/><line style="stroke:#181818;stroke-width:1.0;" x1="746.25" x2="738.25" y1="489.4294" y2="489.4294"/><line style="stroke:#181818;stroke-width:1.0;" x1="746.25" x2="738.25" y1="486.4294" y2="486.4294"/><line style="stroke:#181818;stroke-width:1.0;" x1="742.25" x2="742.25" y1="485.4294" y2="493.4294"/><text fill="#000000" font-family="sans-serif" font-size="13" lengthAdjust="spacing" textLength="42" x="555.06" y="414.1045">user_id</text></g><!--link user_roles to auth_users--><g id="link_user_roles_auth_users"><path codeLine="187" d="M525,413.2094 C525,468.5994 525,531.6094 525,531.6094 C525,531.6094 623.72,531.6094 695.42,531.6094 " fill="none" id="user_roles-auth_users" style="stroke:#181818;stroke-width:1.0;"/><line style="stroke:#181818;stroke-width:1.0;" x1="525" x2="519" y1="403.2094" y2="395.2094"/><line style="stroke:#181818;stroke-width:1.0;" x1="525" x2="531" y1="403.2094" y2="395.2094"/><line style="stroke:#181818;stroke-width:1.0;" x1="525" x2="525" y1="403.2094" y2="395.2094"/><ellipse cx="525" cy="409.2094" fill="none" rx="4" ry="4" style="stroke:#181818;stroke-width:1.0;"/><line style="stroke:#181818;stroke-width:1.0;" x1="699.42" x2="699.42" y1="527.6094" y2="535.6094"/><line style="stroke:#181818;stroke-width:1.0;" x1="696.42" x2="696.42" y1="527.6094" y2="535.6094"/><line style="stroke:#181818;stroke-width:1.0;" x1="695.42" x2="703.42" y1="531.6094" y2="531.6094"/><text fill="#000000" font-family="sans-serif" font-size="13" lengthAdjust="spacing" textLength="42" x="503.01" y="528.1045">user_id</text></g><!--link user_sessions to auth_users--><g id="link_user_sessions_auth_users"><path codeLine="188" d="M761.62,413.2094 C761.62,444.1494 761.62,457.0794 761.62,485.4294 " fill="none" id="user_sessions-auth_users" style="stroke:#181818;stroke-width:1.0;"/><line style="stroke:#181818;stroke-width:1.0;" x1="761.62" x2="755.62" y1="403.2094" y2="395.2094"/><line style="stroke:#181818;stroke-width:1.0;" x1="761.62" x2="767.62" y1="403.2094" y2="395.2094"/><line style="stroke:#181818;stroke-width:1.0;" x1="761.62" x2="761.62" y1="403.2094" y2="395.2094"/><ellipse cx="761.62" cy="409.2094" fill="none" rx="4" ry="4" style="stroke:#181818;stroke-width:1.0;"/><line style="stroke:#181818;stroke-width:1.0;" x1="765.62" x2="757.62" y1="489.4294" y2="489.4294"/><line style="stroke:#181818;stroke-width:1.0;" x1="765.62" x2="757.62" y1="486.4294" y2="486.4294"/><line style="stroke:#181818;stroke-width:1.0;" x1="761.62" x2="761.62" y1="485.4294" y2="493.4294"/><text fill="#000000" font-family="sans-serif" font-size="13" lengthAdjust="spacing" textLength="42" x="718.62" y="440.8145">user_id</text></g><!--link freelancer_skills to freelancers--><g id="link_freelancer_skills_freelancers"><path codeLine="190" d="M1763,430.6494 C1763,450.2794 1763,445.5394 1763,464.5694 " fill="none" id="freelancer_skills-freelancers" style="stroke:#181818;stroke-width:1.0;"/><line style="stroke:#181818;stroke-width:1.0;" x1="1763" x2="1757" y1="420.6494" y2="412.6494"/><line style="stroke:#181818;stroke-width:1.0;" x1="1763" x2="1769" y1="420.6494" y2="412.6494"/><line style="stroke:#181818;stroke-width:1.0;" x1="1763" x2="1763" y1="420.6494" y2="412.6494"/><ellipse cx="1763" cy="426.6494" fill="none" rx="4" ry="4" style="stroke:#181818;stroke-width:1.0;"/><line style="stroke:#181818;stroke-width:1.0;" x1="1767" x2="1759" y1="468.5694" y2="468.5694"/><line style="stroke:#181818;stroke-width:1.0;" x1="1767" x2="1759" y1="465.5694" y2="465.5694"/><line style="stroke:#181818;stroke-width:1.0;" x1="1763" x2="1763" y1="464.5694" y2="472.5694"/><text fill="#000000" font-family="sans-serif" font-size="13" lengthAdjust="spacing" textLength="73" x="1689" y="439.1045">freelancer_id</text></g><!--link jobs to hiring_specialists--><g id="link_jobs_hiring_specialists"><path codeLine="192" d="M2292,600.3894 C2292,622.3394 2292,621.7094 2292,642.5194 " fill="none" id="jobs-hiring_specialists" style="stroke:#181818;stroke-width:1.0;"/><line style="stroke:#181818;stroke-width:1.0;" x1="2292" x2="2286" y1="590.3894" y2="582.3894"/><line style="stroke:#181818;stroke-width:1.0;" x1="2292" x2="2298" y1="590.3894" y2="582.3894"/><line style="stroke:#181818;stroke-width:1.0;" x1="2292" x2="2292" y1="590.3894" y2="582.3894"/><ellipse cx="2292" cy="596.3894" fill="none" rx="4" ry="4" style="stroke:#181818;stroke-width:1.0;"/><line style="stroke:#181818;stroke-width:1.0;" x1="2296" x2="2288" y1="646.5194" y2="646.5194"/><line style="stroke:#181818;stroke-width:1.0;" x1="2296" x2="2288" y1="643.5194" y2="643.5194"/><line style="stroke:#181818;stroke-width:1.0;" x1="2292" x2="2292" y1="642.5194" y2="650.5194"/><text fill="#000000" font-family="sans-serif" font-size="13" lengthAdjust="spacing" textLength="110" x="2181" y="612.9445">hiring_specialist_id</text></g><!--link bids to jobs--><g id="link_bids_jobs"><path codeLine="193" d="M2316.67,421.7794 C2316.67,446.5994 2316.67,449.1794 2316.67,473.0094 " fill="none" id="bids-jobs" style="stroke:#181818;stroke-width:1.0;"/><line style="stroke:#181818;stroke-width:1.0;" x1="2316.67" x2="2310.67" y1="411.7794" y2="403.7794"/><line style="stroke:#181818;stroke-width:1.0;" x1="2316.67" x2="2322.67" y1="411.7794" y2="403.7794"/><line style="stroke:#181818;stroke-width:1.0;" x1="2316.67" x2="2316.67" y1="411.7794" y2="403.7794"/><ellipse cx="2316.67" cy="417.7794" fill="none" rx="4" ry="4" style="stroke:#181818;stroke-width:1.0;"/><line style="stroke:#181818;stroke-width:1.0;" x1="2320.67" x2="2312.67" y1="477.0094" y2="477.0094"/><line style="stroke:#181818;stroke-width:1.0;" x1="2320.67" x2="2312.67" y1="474.0094" y2="474.0094"/><line style="stroke:#181818;stroke-width:1.0;" x1="2316.67" x2="2316.67" y1="473.0094" y2="481.0094"/><text fill="#000000" font-family="sans-serif" font-size="13" lengthAdjust="spacing" textLength="34" x="2281.67" y="438.8845">job_id</text></g><!--link bids to freelancers--><g id="link_bids_freelancers"><path codeLine="194" d="M2267.33,421.7194 C2267.33,457.2394 2267.33,477.6094 2267.33,477.6094 C2267.33,477.6094 1990.81,477.6094 1865.77,477.6094 " fill="none" id="bids-freelancers" style="stroke:#181818;stroke-width:1.0;"/><line style="stroke:#181818;stroke-width:1.0;" x1="2267.33" x2="2261.33" y1="411.7194" y2="403.7194"/><line style="stroke:#181818;stroke-width:1.0;" x1="2267.33" x2="2273.33" y1="411.7194" y2="403.7194"/><line style="stroke:#181818;stroke-width:1.0;" x1="2267.33" x2="2267.33" y1="411.7194" y2="403.7194"/><ellipse cx="2267.33" cy="417.7194" fill="none" rx="4" ry="4" style="stroke:#181818;stroke-width:1.0;"/><line style="stroke:#181818;stroke-width:1.0;" x1="1861.77" x2="1861.77" y1="481.6094" y2="473.6094"/><line style="stroke:#181818;stroke-width:1.0;" x1="1864.77" x2="1864.77" y1="481.6094" y2="473.6094"/><line style="stroke:#181818;stroke-width:1.0;" x1="1865.77" x2="1857.77" y1="477.6094" y2="477.6094"/><text fill="#000000" font-family="sans-serif" font-size="13" lengthAdjust="spacing" textLength="73" x="2025.5" y="474.1045">freelancer_id</text></g><!--link project_skills to projects--><g id="link_project_skills_projects"><path codeLine="196" d="M1444.5,413.1194 C1444.5,453.5694 1444.5,485.6094 1444.5,485.6094 C1444.5,485.6094 1370.92,485.6094 1309.57,485.6094 " fill="none" id="project_skills-projects" style="stroke:#181818;stroke-width:1.0;"/><line style="stroke:#181818;stroke-width:1.0;" x1="1444.5" x2="1438.5" y1="403.1194" y2="395.1194"/><line style="stroke:#181818;stroke-width:1.0;" x1="1444.5" x2="1450.5" y1="403.1194" y2="395.1194"/><line style="stroke:#181818;stroke-width:1.0;" x1="1444.5" x2="1444.5" y1="403.1194" y2="395.1194"/><ellipse cx="1444.5" cy="409.1194" fill="none" rx="4" ry="4" style="stroke:#181818;stroke-width:1.0;"/><line style="stroke:#181818;stroke-width:1.0;" x1="1305.57" x2="1305.57" y1="489.6094" y2="481.6094"/><line style="stroke:#181818;stroke-width:1.0;" x1="1308.57" x2="1308.57" y1="489.6094" y2="481.6094"/><line style="stroke:#181818;stroke-width:1.0;" x1="1309.57" x2="1301.57" y1="485.6094" y2="485.6094"/><text fill="#000000" font-family="sans-serif" font-size="13" lengthAdjust="spacing" textLength="56" x="1361.28" y="482.1045">project_id</text></g><!--link project_skills to skills--><g id="link_project_skills_skills"><path codeLine="197" d="M1500,413.2094 C1500,442.8494 1500,453.8294 1500,481.8094 " fill="none" id="project_skills-skills" style="stroke:#181818;stroke-width:1.0;"/><line style="stroke:#181818;stroke-width:1.0;" x1="1500" x2="1494" y1="403.2094" y2="395.2094"/><line style="stroke:#181818;stroke-width:1.0;" x1="1500" x2="1506" y1="403.2094" y2="395.2094"/><line style="stroke:#181818;stroke-width:1.0;" x1="1500" x2="1500" y1="403.2094" y2="395.2094"/><ellipse cx="1500" cy="409.2094" fill="none" rx="4" ry="4" style="stroke:#181818;stroke-width:1.0;"/><line style="stroke:#181818;stroke-width:1.0;" x1="1504" x2="1496" y1="485.8094" y2="485.8094"/><line style="stroke:#181818;stroke-width:1.0;" x1="1504" x2="1496" y1="482.8094" y2="482.8094"/><line style="stroke:#181818;stroke-width:1.0;" x1="1500" x2="1500" y1="481.8094" y2="489.8094"/><text fill="#000000" font-family="sans-serif" font-size="13" lengthAdjust="spacing" textLength="40" x="1459" y="439.0045">skill_id</text></g><!--link project_bids to projects--><g id="link_project_bids_projects"><path codeLine="199" d="M1185,430.6494 C1185,453.2094 1185,451.8994 1185,472.9194 " fill="none" id="project_bids-projects" style="stroke:#181818;stroke-width:1.0;"/><line style="stroke:#181818;stroke-width:1.0;" x1="1185" x2="1179" y1="420.6494" y2="412.6494"/><line style="stroke:#181818;stroke-width:1.0;" x1="1185" x2="1191" y1="420.6494" y2="412.6494"/><line style="stroke:#181818;stroke-width:1.0;" x1="1185" x2="1185" y1="420.6494" y2="412.6494"/><ellipse cx="1185" cy="426.6494" fill="none" rx="4" ry="4" style="stroke:#181818;stroke-width:1.0;"/><line style="stroke:#181818;stroke-width:1.0;" x1="1189" x2="1181" y1="476.9194" y2="476.9194"/><line style="stroke:#181818;stroke-width:1.0;" x1="1189" x2="1181" y1="473.9194" y2="473.9194"/><line style="stroke:#181818;stroke-width:1.0;" x1="1185" x2="1185" y1="472.9194" y2="480.9194"/><text fill="#000000" font-family="sans-serif" font-size="13" lengthAdjust="spacing" textLength="56" x="1128" y="443.2845">project_id</text></g><!--link project_bids to freelancers--><g id="link_project_bids_freelancers"><path codeLine="200" d="M1201.5,430.7894 C1201.5,463.8894 1201.5,478.6094 1201.5,478.6094 C1201.5,478.6094 1584.34,478.6094 1734.34,478.6094 " fill="none" id="project_bids-freelancers" style="stroke:#181818;stroke-width:1.0;"/><line style="stroke:#181818;stroke-width:1.0;" x1="1201.5" x2="1195.5" y1="420.7894" y2="412.7894"/><line style="stroke:#181818;stroke-width:1.0;" x1="1201.5" x2="1207.5" y1="420.7894" y2="412.7894"/><line style="stroke:#181818;stroke-width:1.0;" x1="1201.5" x2="1201.5" y1="420.7894" y2="412.7894"/><ellipse cx="1201.5" cy="426.7894" fill="none" rx="4" ry="4" style="stroke:#181818;stroke-width:1.0;"/><line style="stroke:#181818;stroke-width:1.0;" x1="1738.34" x2="1738.34" y1="474.6094" y2="482.6094"/><line style="stroke:#181818;stroke-width:1.0;" x1="1735.34" x2="1735.34" y1="474.6094" y2="482.6094"/><line style="stroke:#181818;stroke-width:1.0;" x1="1734.34" x2="1742.34" y1="478.6094" y2="478.6094"/><text fill="#000000" font-family="sans-serif" font-size="13" lengthAdjust="spacing" textLength="73" x="1421.26" y="493.1045">freelancer_id</text></g><!--link project_bids to auth_users--><g id="link_project_bids_auth_users"><path codeLine="201" d="M1119.25,430.8794 C1119.25,488.8194 1119.25,544.6094 1119.25,544.6094 C1119.25,544.6094 940.3,544.6094 838.79,544.6094 " fill="none" id="project_bids-auth_users" style="stroke:#181818;stroke-width:1.0;"/><line style="stroke:#181818;stroke-width:1.0;" x1="1119.25" x2="1113.25" y1="420.8794" y2="412.8794"/><line style="stroke:#181818;stroke-width:1.0;" x1="1119.25" x2="1125.25" y1="420.8794" y2="412.8794"/><line style="stroke:#181818;stroke-width:1.0;" x1="1119.25" x2="1119.25" y1="420.8794" y2="412.8794"/><ellipse cx="1119.25" cy="426.8794" fill="none" rx="4" ry="4" style="stroke:#181818;stroke-width:1.0;"/><line style="stroke:#181818;stroke-width:1.0;" x1="834.79" x2="834.79" y1="548.6094" y2="540.6094"/><line style="stroke:#181818;stroke-width:1.0;" x1="837.79" x2="837.79" y1="548.6094" y2="540.6094"/><line style="stroke:#181818;stroke-width:1.0;" x1="838.79" x2="830.79" y1="544.6094" y2="544.6094"/><text fill="#000000" font-family="sans-serif" font-size="13" lengthAdjust="spacing" textLength="70" x="969.89" y="541.1045">reviewed_by</text></g><!--link contracts to projects--><g id="link_contracts_projects"><path codeLine="203" d="M1285.33,430.6494 C1285.33,453.2094 1285.33,451.8994 1285.33,472.9194 " fill="none" id="contracts-projects" style="stroke:#181818;stroke-width:1.0;"/><line style="stroke:#181818;stroke-width:1.0;" x1="1285.33" x2="1279.33" y1="420.6494" y2="412.6494"/><line style="stroke:#181818;stroke-width:1.0;" x1="1285.33" x2="1291.33" y1="420.6494" y2="412.6494"/><line style="stroke:#181818;stroke-width:1.0;" x1="1285.33" x2="1285.33" y1="420.6494" y2="412.6494"/><ellipse cx="1285.33" cy="426.6494" fill="none" rx="4" ry="4" style="stroke:#181818;stroke-width:1.0;"/><line style="stroke:#181818;stroke-width:1.0;" x1="1289.33" x2="1281.33" y1="476.9194" y2="476.9194"/><line style="stroke:#181818;stroke-width:1.0;" x1="1289.33" x2="1281.33" y1="473.9194" y2="473.9194"/><line style="stroke:#181818;stroke-width:1.0;" x1="1285.33" x2="1285.33" y1="472.9194" y2="480.9194"/><text fill="#000000" font-family="sans-serif" font-size="13" lengthAdjust="spacing" textLength="56" x="1228.33" y="443.2845">project_id</text></g><!--link contracts to freelancers--><g id="link_contracts_freelancers"><path codeLine="204" d="M1351.25,430.7994 C1351.25,462.6294 1351.25,475.6094 1351.25,475.6094 C1351.25,475.6094 1613.05,475.6094 1734.25,475.6094 " fill="none" id="contracts-freelancers" style="stroke:#181818;stroke-width:1.0;"/><line style="stroke:#181818;stroke-width:1.0;" x1="1351.25" x2="1345.25" y1="420.7994" y2="412.7994"/><line style="stroke:#181818;stroke-width:1.0;" x1="1351.25" x2="1357.25" y1="420.7994" y2="412.7994"/><line style="stroke:#181818;stroke-width:1.0;" x1="1351.25" x2="1351.25" y1="420.7994" y2="412.7994"/><ellipse cx="1351.25" cy="426.7994" fill="none" rx="4" ry="4" style="stroke:#181818;stroke-width:1.0;"/><line style="stroke:#181818;stroke-width:1.0;" x1="1738.25" x2="1738.25" y1="471.6094" y2="479.6094"/><line style="stroke:#181818;stroke-width:1.0;" x1="1735.25" x2="1735.25" y1="471.6094" y2="479.6094"/><line style="stroke:#181818;stroke-width:1.0;" x1="1734.25" x2="1742.25" y1="475.6094" y2="475.6094"/><text fill="#000000" font-family="sans-serif" font-size="13" lengthAdjust="spacing" textLength="73" x="1516.34" y="490.1045">freelancer_id</text></g><!--link contracts to auth_users--><g id="link_contracts_auth_users"><path codeLine="205" d="M1269.17,430.6394 C1269.17,442.2294 1269.17,432.6094 1269.17,432.6094 C1269.17,432.6094 810.7,432.6094 810.7,432.6094 C810.7,432.6094 810.7,457.4794 810.7,485.3294 " fill="none" id="contracts-auth_users" style="stroke:#181818;stroke-width:1.0;"/><line style="stroke:#181818;stroke-width:1.0;" x1="1269.17" x2="1263.17" y1="420.6394" y2="412.6394"/><line style="stroke:#181818;stroke-width:1.0;" x1="1269.17" x2="1275.17" y1="420.6394" y2="412.6394"/><line style="stroke:#181818;stroke-width:1.0;" x1="1269.17" x2="1269.17" y1="420.6394" y2="412.6394"/><ellipse cx="1269.17" cy="426.6394" fill="none" rx="4" ry="4" style="stroke:#181818;stroke-width:1.0;"/><line style="stroke:#181818;stroke-width:1.0;" x1="814.7" x2="806.7" y1="489.3294" y2="489.3294"/><line style="stroke:#181818;stroke-width:1.0;" x1="814.7" x2="806.7" y1="486.3294" y2="486.3294"/><line style="stroke:#181818;stroke-width:1.0;" x1="810.7" x2="810.7" y1="485.3294" y2="493.3294"/><text fill="#000000" font-family="sans-serif" font-size="13" lengthAdjust="spacing" textLength="48" x="970.56" y="429.1045">client_id</text></g><!--link contract_versions to contracts--><g id="link_contract_versions_contracts"><path codeLine="207" d="M839.75,199.6094 C839.75,199.6094 1302.33,199.6094 1302.33,199.6094 C1302.33,199.6094 1302.33,230.7494 1302.33,268.3594 " fill="none" id="contract_versions-contracts" style="stroke:#181818;stroke-width:1.0;"/><line style="stroke:#181818;stroke-width:1.0;" x1="839.75" x2="833.75" y1="189.6094" y2="181.6094"/><line style="stroke:#181818;stroke-width:1.0;" x1="839.75" x2="845.75" y1="189.6094" y2="181.6094"/><line style="stroke:#181818;stroke-width:1.0;" x1="839.75" x2="839.75" y1="189.6094" y2="181.6094"/><ellipse cx="839.75" cy="195.6094" fill="none" rx="4" ry="4" style="stroke:#181818;stroke-width:1.0;"/><line style="stroke:#181818;stroke-width:1.0;" x1="1306.33" x2="1298.33" y1="272.3594" y2="272.3594"/><line style="stroke:#181818;stroke-width:1.0;" x1="1306.33" x2="1298.33" y1="269.3594" y2="269.3594"/><line style="stroke:#181818;stroke-width:1.0;" x1="1302.33" x2="1302.33" y1="268.3594" y2="276.3594"/><text fill="#000000" font-family="sans-serif" font-size="13" lengthAdjust="spacing" textLength="64" x="1035.42" y="196.1045">contract_id</text></g><!--link contract_versions to auth_users--><g id="link_contract_versions_auth_users"><path codeLine="208" d="M790.9,199.8294 C790.9,281.1894 790.9,413.0394 790.9,485.5294 " fill="none" id="contract_versions-auth_users" style="stroke:#181818;stroke-width:1.0;"/><line style="stroke:#181818;stroke-width:1.0;" x1="790.9" x2="784.9" y1="189.8294" y2="181.8294"/><line style="stroke:#181818;stroke-width:1.0;" x1="790.9" x2="796.9" y1="189.8294" y2="181.8294"/><line style="stroke:#181818;stroke-width:1.0;" x1="790.9" x2="790.9" y1="189.8294" y2="181.8294"/><ellipse cx="790.9" cy="195.8294" fill="none" rx="4" ry="4" style="stroke:#181818;stroke-width:1.0;"/><line style="stroke:#181818;stroke-width:1.0;" x1="794.9" x2="786.9" y1="489.5294" y2="489.5294"/><line style="stroke:#181818;stroke-width:1.0;" x1="794.9" x2="786.9" y1="486.5294" y2="486.5294"/><line style="stroke:#181818;stroke-width:1.0;" x1="790.9" x2="790.9" y1="485.5294" y2="493.5294"/><text fill="#000000" font-family="sans-serif" font-size="13" lengthAdjust="spacing" textLength="64" x="791.9" y="334.1745">created_by</text></g><!--link contract_signatures to contracts--><g id="link_contract_signatures_contracts"><path codeLine="209" d="M1176.58,131.6094 C1256.81,131.6094 1351.67,131.6094 1351.67,131.6094 C1351.67,131.6094 1351.67,206.0294 1351.67,268.3394 " fill="none" id="contract_signatures-contracts" style="stroke:#181818;stroke-width:1.0;"/><line style="stroke:#181818;stroke-width:1.0;" x1="1166.58" x2="1158.58" y1="131.6094" y2="137.6094"/><line style="stroke:#181818;stroke-width:1.0;" x1="1166.58" x2="1158.58" y1="131.6094" y2="125.6094"/><line style="stroke:#181818;stroke-width:1.0;" x1="1166.58" x2="1158.58" y1="131.6094" y2="131.6094"/><ellipse cx="1172.58" cy="131.6094" fill="none" rx="4" ry="4" style="stroke:#181818;stroke-width:1.0;"/><line style="stroke:#181818;stroke-width:1.0;" x1="1355.67" x2="1347.67" y1="272.3394" y2="272.3394"/><line style="stroke:#181818;stroke-width:1.0;" x1="1355.67" x2="1347.67" y1="269.3394" y2="269.3394"/><line style="stroke:#181818;stroke-width:1.0;" x1="1351.67" x2="1351.67" y1="268.3394" y2="276.3394"/><text fill="#000000" font-family="sans-serif" font-size="13" lengthAdjust="spacing" textLength="64" x="1262.49" y="128.1045">contract_id</text></g><!--link contract_signatures to auth_users--><g id="link_contract_signatures_auth_users"><path codeLine="210" d="M1052.5,199.8994 C1052.5,305.2094 1052.5,519.6094 1052.5,519.6094 C1052.5,519.6094 922.86,519.6094 838.72,519.6094 " fill="none" id="contract_signatures-auth_users" style="stroke:#181818;stroke-width:1.0;"/><line style="stroke:#181818;stroke-width:1.0;" x1="1052.5" x2="1046.5" y1="189.8994" y2="181.8994"/><line style="stroke:#181818;stroke-width:1.0;" x1="1052.5" x2="1058.5" y1="189.8994" y2="181.8994"/><line style="stroke:#181818;stroke-width:1.0;" x1="1052.5" x2="1052.5" y1="189.8994" y2="181.8994"/><ellipse cx="1052.5" cy="195.8994" fill="none" rx="4" ry="4" style="stroke:#181818;stroke-width:1.0;"/><line style="stroke:#181818;stroke-width:1.0;" x1="834.72" x2="834.72" y1="523.6094" y2="515.6094"/><line style="stroke:#181818;stroke-width:1.0;" x1="837.72" x2="837.72" y1="523.6094" y2="515.6094"/><line style="stroke:#181818;stroke-width:1.0;" x1="838.72" x2="830.72" y1="519.6094" y2="519.6094"/><text fill="#000000" font-family="sans-serif" font-size="13" lengthAdjust="spacing" textLength="52" x="999.5" y="458.1445">signer_id</text></g><!--link time_entries to projects--><g id="link_time_entries_projects"><path codeLine="212" d="M961,430.7594 C961,467.5894 961,487.6094 961,487.6094 C961,487.6094 1079.22,487.6094 1160.32,487.6094 " fill="none" id="time_entries-projects" style="stroke:#181818;stroke-width:1.0;"/><line style="stroke:#181818;stroke-width:1.0;" x1="961" x2="955" y1="420.7594" y2="412.7594"/><line style="stroke:#181818;stroke-width:1.0;" x1="961" x2="967" y1="420.7594" y2="412.7594"/><line style="stroke:#181818;stroke-width:1.0;" x1="961" x2="961" y1="420.7594" y2="412.7594"/><ellipse cx="961" cy="426.7594" fill="none" rx="4" ry="4" style="stroke:#181818;stroke-width:1.0;"/><line style="stroke:#181818;stroke-width:1.0;" x1="1164.32" x2="1164.32" y1="483.6094" y2="491.6094"/><line style="stroke:#181818;stroke-width:1.0;" x1="1161.32" x2="1161.32" y1="483.6094" y2="491.6094"/><line style="stroke:#181818;stroke-width:1.0;" x1="1160.32" x2="1168.32" y1="487.6094" y2="487.6094"/><text fill="#000000" font-family="sans-serif" font-size="13" lengthAdjust="spacing" textLength="56" x="970.24" y="484.1045">project_id</text></g><!--link time_entries to auth_users--><g id="link_time_entries_auth_users"><path codeLine="213" d="M869,409.6094 C827.02,409.6094 800.8,409.6094 800.8,409.6094 C800.8,409.6094 800.8,449.5594 800.8,485.3394 " fill="none" id="time_entries-auth_users" style="stroke:#181818;stroke-width:1.0;"/><line style="stroke:#181818;stroke-width:1.0;" x1="879" x2="887" y1="409.6094" y2="403.6094"/><line style="stroke:#181818;stroke-width:1.0;" x1="879" x2="887" y1="409.6094" y2="415.6094"/><line style="stroke:#181818;stroke-width:1.0;" x1="879" x2="887" y1="409.6094" y2="409.6094"/><ellipse cx="873" cy="409.6094" fill="none" rx="4" ry="4" style="stroke:#181818;stroke-width:1.0;"/><line style="stroke:#181818;stroke-width:1.0;" x1="804.8" x2="796.8" y1="489.3394" y2="489.3394"/><line style="stroke:#181818;stroke-width:1.0;" x1="804.8" x2="796.8" y1="486.3394" y2="486.3394"/><line style="stroke:#181818;stroke-width:1.0;" x1="800.8" x2="800.8" y1="485.3394" y2="493.3394"/><text fill="#000000" font-family="sans-serif" font-size="13" lengthAdjust="spacing" textLength="73" x="803.03" y="406.1045">freelancer_id</text></g><!--link economic_sync_log to auth_users--><g id="link_economic_sync_log_auth_users"><path codeLine="215" d="M225.32,406.6094 C399.84,406.6094 722.88,406.6094 722.88,406.6094 C722.88,406.6094 722.88,448.6694 722.88,485.4294 " fill="none" id="economic_sync_log-auth_users" style="stroke:#181818;stroke-width:1.0;"/><line style="stroke:#181818;stroke-width:1.0;" x1="215.32" x2="207.32" y1="406.6094" y2="412.6094"/><line style="stroke:#181818;stroke-width:1.0;" x1="215.32" x2="207.32" y1="406.6094" y2="400.6094"/><line style="stroke:#181818;stroke-width:1.0;" x1="215.32" x2="207.32" y1="406.6094" y2="406.6094"/><ellipse cx="221.32" cy="406.6094" fill="none" rx="4" ry="4" style="stroke:#181818;stroke-width:1.0;"/><line style="stroke:#181818;stroke-width:1.0;" x1="726.88" x2="718.88" y1="489.4294" y2="489.4294"/><line style="stroke:#181818;stroke-width:1.0;" x1="726.88" x2="718.88" y1="486.4294" y2="486.4294"/><line style="stroke:#181818;stroke-width:1.0;" x1="722.88" x2="722.88" y1="485.4294" y2="493.4294"/><text fill="#000000" font-family="sans-serif" font-size="13" lengthAdjust="spacing" textLength="120" x="387.51" y="421.1045">triggered_by_user_id</text></g><!--link match_requests to freelancers--><g id="link_match_requests_freelancers"><path codeLine="217" d="M2016.97,399.6094 C1938.72,399.6094 1844.5,399.6094 1844.5,399.6094 C1844.5,399.6094 1844.5,429.4094 1844.5,464.5594 " fill="none" id="match_requests-freelancers" style="stroke:#181818;stroke-width:1.0;"/><line style="stroke:#181818;stroke-width:1.0;" x1="2026.97" x2="2034.97" y1="399.6094" y2="393.6094"/><line style="stroke:#181818;stroke-width:1.0;" x1="2026.97" x2="2034.97" y1="399.6094" y2="405.6094"/><line style="stroke:#181818;stroke-width:1.0;" x1="2026.97" x2="2034.97" y1="399.6094" y2="399.6094"/><ellipse cx="2020.97" cy="399.6094" fill="none" rx="4" ry="4" style="stroke:#181818;stroke-width:1.0;"/><line style="stroke:#181818;stroke-width:1.0;" x1="1848.5" x2="1840.5" y1="468.5594" y2="468.5594"/><line style="stroke:#181818;stroke-width:1.0;" x1="1848.5" x2="1840.5" y1="465.5594" y2="465.5594"/><line style="stroke:#181818;stroke-width:1.0;" x1="1844.5" x2="1844.5" y1="464.5594" y2="472.5594"/><text fill="#000000" font-family="sans-serif" font-size="13" lengthAdjust="spacing" textLength="73" x="1829.26" y="414.1045">freelancer_id</text></g><!--link match_requests to jobs--><g id="link_match_requests_jobs"><path codeLine="218" d="M2201.12,344.6094 C2216.56,344.6094 2210.25,344.6094 2210.25,344.6094 C2210.25,344.6094 2210.25,417.6194 2210.25,473.0094 " fill="none" id="match_requests-jobs" style="stroke:#181818;stroke-width:1.0;"/><line style="stroke:#181818;stroke-width:1.0;" x1="2191.12" x2="2183.12" y1="344.6094" y2="350.6094"/><line style="stroke:#181818;stroke-width:1.0;" x1="2191.12" x2="2183.12" y1="344.6094" y2="338.6094"/><line style="stroke:#181818;stroke-width:1.0;" x1="2191.12" x2="2183.12" y1="344.6094" y2="344.6094"/><ellipse cx="2197.12" cy="344.6094" fill="none" rx="4" ry="4" style="stroke:#181818;stroke-width:1.0;"/><line style="stroke:#181818;stroke-width:1.0;" x1="2214.25" x2="2206.25" y1="477.0094" y2="477.0094"/><line style="stroke:#181818;stroke-width:1.0;" x1="2214.25" x2="2206.25" y1="474.0094" y2="474.0094"/><line style="stroke:#181818;stroke-width:1.0;" x1="2210.25" x2="2210.25" y1="473.0094" y2="481.0094"/><text fill="#000000" font-family="sans-serif" font-size="13" lengthAdjust="spacing" textLength="34" x="2184.25" y="413.7345">job_id</text></g><!--link match_requests to auth_users--><g id="link_match_requests_auth_users"><path codeLine="219" d="M2109,421.6694 C2109,446.8794 2109,452.6094 2109,452.6094 C2109,452.6094 820.6,452.6094 820.6,452.6094 C820.6,452.6094 820.6,465.2994 820.6,485.4994 " fill="none" id="match_requests-auth_users" style="stroke:#181818;stroke-width:1.0;"/><line style="stroke:#181818;stroke-width:1.0;" x1="2109" x2="2103" y1="411.6694" y2="403.6694"/><line style="stroke:#181818;stroke-width:1.0;" x1="2109" x2="2115" y1="411.6694" y2="403.6694"/><line style="stroke:#181818;stroke-width:1.0;" x1="2109" x2="2109" y1="411.6694" y2="403.6694"/><ellipse cx="2109" cy="417.6694" fill="none" rx="4" ry="4" style="stroke:#181818;stroke-width:1.0;"/><line style="stroke:#181818;stroke-width:1.0;" x1="824.6" x2="816.6" y1="489.4994" y2="489.4994"/><line style="stroke:#181818;stroke-width:1.0;" x1="824.6" x2="816.6" y1="486.4994" y2="486.4994"/><line style="stroke:#181818;stroke-width:1.0;" x1="820.6" x2="820.6" y1="485.4994" y2="493.4994"/><text fill="#000000" font-family="sans-serif" font-size="13" lengthAdjust="spacing" textLength="70" x="1469.83" y="467.1045">reviewed_by</text></g><!--link match_results to match_requests--><g id="link_match_results_match_requests"><path codeLine="220" d="M2109,234.7194 C2109,257.7994 2109,256.2594 2109,277.5394 " fill="none" id="match_results-match_requests" style="stroke:#181818;stroke-width:1.0;"/><line style="stroke:#181818;stroke-width:1.0;" x1="2109" x2="2103" y1="224.7194" y2="216.7194"/><line style="stroke:#181818;stroke-width:1.0;" x1="2109" x2="2115" y1="224.7194" y2="216.7194"/><line style="stroke:#181818;stroke-width:1.0;" x1="2109" x2="2109" y1="224.7194" y2="216.7194"/><ellipse cx="2109" cy="230.7194" fill="none" rx="4" ry="4" style="stroke:#181818;stroke-width:1.0;"/><line style="stroke:#181818;stroke-width:1.0;" x1="2113" x2="2105" y1="281.5394" y2="281.5394"/><line style="stroke:#181818;stroke-width:1.0;" x1="2113" x2="2105" y1="278.5394" y2="278.5394"/><line style="stroke:#181818;stroke-width:1.0;" x1="2109" x2="2109" y1="277.5394" y2="285.5394"/><text fill="#000000" font-family="sans-serif" font-size="13" lengthAdjust="spacing" textLength="103" x="2005" y="247.6245">match_request_id</text></g><!--link job_embeddings to jobs--><g id="link_job_embeddings_jobs"><path codeLine="222" d="M2383.35,344.6094 C2368.22,344.6094 2375.25,344.6094 2375.25,344.6094 C2375.25,344.6094 2375.25,417.6194 2375.25,473.0094 " fill="none" id="job_embeddings-jobs" style="stroke:#181818;stroke-width:1.0;"/><line style="stroke:#181818;stroke-width:1.0;" x1="2393.35" x2="2401.35" y1="344.6094" y2="338.6094"/><line style="stroke:#181818;stroke-width:1.0;" x1="2393.35" x2="2401.35" y1="344.6094" y2="350.6094"/><line style="stroke:#181818;stroke-width:1.0;" x1="2393.35" x2="2401.35" y1="344.6094" y2="344.6094"/><ellipse cx="2387.35" cy="344.6094" fill="none" rx="4" ry="4" style="stroke:#181818;stroke-width:1.0;"/><line style="stroke:#181818;stroke-width:1.0;" x1="2379.25" x2="2371.25" y1="477.0094" y2="477.0094"/><line style="stroke:#181818;stroke-width:1.0;" x1="2379.25" x2="2371.25" y1="474.0094" y2="474.0094"/><line style="stroke:#181818;stroke-width:1.0;" x1="2375.25" x2="2375.25" y1="473.0094" y2="481.0094"/><text fill="#000000" font-family="sans-serif" font-size="13" lengthAdjust="spacing" textLength="34" x="2376.25" y="414.2545">job_id</text></g><!--link freelancer_embeddings to freelancers--><g id="link_freelancer_embeddings_freelancers"><path codeLine="223" d="M1831.5,413.2094 C1831.5,437.0094 1831.5,439.5394 1831.5,464.3394 " fill="none" id="freelancer_embeddings-freelancers" style="stroke:#181818;stroke-width:1.0;"/><line style="stroke:#181818;stroke-width:1.0;" x1="1831.5" x2="1825.5" y1="403.2094" y2="395.2094"/><line style="stroke:#181818;stroke-width:1.0;" x1="1831.5" x2="1837.5" y1="403.2094" y2="395.2094"/><line style="stroke:#181818;stroke-width:1.0;" x1="1831.5" x2="1831.5" y1="403.2094" y2="395.2094"/><ellipse cx="1831.5" cy="409.2094" fill="none" rx="4" ry="4" style="stroke:#181818;stroke-width:1.0;"/><line style="stroke:#181818;stroke-width:1.0;" x1="1835.5" x2="1827.5" y1="468.3394" y2="468.3394"/><line style="stroke:#181818;stroke-width:1.0;" x1="1835.5" x2="1827.5" y1="465.3394" y2="465.3394"/><line style="stroke:#181818;stroke-width:1.0;" x1="1831.5" x2="1831.5" y1="464.3394" y2="472.3394"/><text fill="#000000" font-family="sans-serif" font-size="13" lengthAdjust="spacing" textLength="73" x="1832.5" y="448.2745">freelancer_id</text></g><!--SRC=[fLZDRXit4BxlKn0kqCG5dDXk4i2B883ioBMSM0uafK1F1BKxbcZlBZSarxRQ60Zw7htat5SeUkYRv0Nw2XskzeVxwmLg7IGEP-ORSdxf9-JqYFppzTllVtxxyWSPp_PypbQIXUGq2GBoT0Qns6DN0VXwjsGRnJ54FhydnyuJyZDN85qo2W8W7aHQClpXCysMJC4UVW7kI29MH4B0D1SHI1HxnmCVNAAIE6Ly7dA4DRlgENbw-EA8F5EV0dB5KNRNSJJNg7KkWcI1wYDTsl9EX740EaKCXGzeDClCGpbrmwEOcVC4F0AzYO48gTV2sa1jN6_8RmuXnyoxMKcHHFw928GatvsEpCVi2Ec3pAWl3iq7gICfnLr6V7LWFiw3WsT3uxvy_VVll-hVPFHnSJQUBYOdeyNaSag-9n_duzcyazznCkDsMABNpnAyQBL3c29cITCbUVrwdbqX6I7rpPlq93zmdxWaIRXlBCgrn5AO2ztgo1TrVaACOceJ86GymAM6UurBAT0NBi5hfkQdZP2A6k8MermEG7bChGAbJ7oKcdFA0EM1MF68CcrEmKDG62on_lKHTor6xz5R0znp9G5ZE_9o_rZhfcqH2w6yJ8zfM0cvAIaA8YwaqPkH7jg0A4Pm4DJXCceJr6AnoIbx2Pt6XCSXyYnxDi2aekAAmdqCqcmQytbKCMpD9OzMLCNWSHPmfRUMDSdzzz7lZ_FBupacpOVPvVduP34aRwx5Sck8-T64tfQLugGDQsbN6bs3fuiqIXTDvTaEhO5WwEb4jVZMScYN5sjNLJF83eaggTkuHZ1KZznNooRaOhGuEPjCVnhWY91fRqqbV4eWZuqgQN38eYUhPGDkETo1JvUR5b_b82e9Qh0ffObQiQe296u1Urj0bITadW4cMqE6M5v1Zf8GiyIpL35bQfHBhl5xMTppYiKs4S8b-Bu9FuGnLQt5p-Re1LyHrnQfUPpwRHMyIBh5013owS7B7r_jTXIP6bhhpc3FzM7t1DhnvEtROK6svFxMJlFZyRlegebT2PhdJ05Z4uQbs6EGg8bk5vsHtNDJ9vVJnMmqh39wmengUHKhLl_h65w0tK4FkymSCG_tgXq5jMbFmL8XOfRfhXfGI2Y-Yj0S2JMmaZuGpWXKplx8736v69k-DVhbOjWyOKOKQcPfdfbg4mRdMvldrYAHgbAbEZq4U7GHcigsYJoA0rHgIOFQD2VTIMVjekbjTVP41lPYoLShaAaJQMr-ivCGtn1NGeOK3Gafrc38tWtRZBHtBSksjPehYfxajyQmfS0PaqK6MDn0P8ORZW7GCI9EBnTZbyHi4ve0Pvw7ZmHC5Zpz7TThNx8xXbqMdpcdv-FPTBn0aOlyGUEIm_t3bmU7-qVxwHzsX11x2RKaAOjyMjTk7a2evnWFY2yI21G-btOo9dm2OBE9X2Ph5CNd6T5hVBYirlWDnItiz4RbRFm-VORCpoOV-Yf6yL1u47jxdp_RZmyt7xGTQz9_bAqOs_iudUPGcx7RmxLRZNt7IUUyZB5b-7HRPpmdBU2PLAh1pPf5PQSNk3PmPIB5TEXQsTZ1cwtSOWuhbTfMzAiSQcyRVyKFLlDndB8zz1hHOEkpeC5SWIzQIGbUzeHCeDJWscMwMw2AKBGCfwqH3CLeYbHGYavX_eTXrV3UUspZh6YjnLwp9hS9jHLOnwbDuGCSrovHJPjsdiu0gyxa6NTDXziOpTDijmVHLbFQPzO1v_mF]--></g></svg>